<svg xmlns="http://www.w3.org/2000/svg" xmlns:xlink="http://www.w3.org/1999/xlink" width="192" zoomAndPan="magnify" viewBox="0 0 144 143.999998" height="192" preserveAspectRatio="xMidYMid meet" version="1.0"><defs><clipPath id="5a9228bb31"><path d="M 31.34375 30 L 112.34375 30 L 112.34375 120.84375 L 31.34375 120.84375 Z M 31.34375 30 " clip-rule="nonzero"/></clipPath><clipPath id="0648d67111"><path d="M 103.070312 57.144531 L 106.636719 57.144531 L 106.636719 60.8125 L 103.070312 60.8125 Z M 103.070312 57.144531 " clip-rule="nonzero"/></clipPath><clipPath id="1fc2a65f65"><path d="M 104.851562 57.144531 C 103.867188 57.144531 103.070312 57.964844 103.070312 58.972656 C 103.070312 59.984375 103.867188 60.804688 104.851562 60.804688 C 105.839844 60.804688 106.636719 59.984375 106.636719 58.972656 C 106.636719 57.964844 105.839844 57.144531 104.851562 57.144531 Z M 104.851562 57.144531 " clip-rule="nonzero"/></clipPath><clipPath id="2f7432e8ba"><path d="M 94.542969 49.421875 L 100.394531 49.421875 L 100.394531 55.269531 L 94.542969 55.269531 Z M 94.542969 49.421875 " clip-rule="nonzero"/></clipPath><clipPath id="99358b53b5"><path d="M 97.46875 49.421875 C 95.855469 49.421875 94.542969 50.730469 94.542969 52.34375 C 94.542969 53.960938 95.855469 55.269531 97.46875 55.269531 C 99.082031 55.269531 100.394531 53.960938 100.394531 52.34375 C 100.394531 50.730469 99.082031 49.421875 97.46875 49.421875 Z M 97.46875 49.421875 " clip-rule="nonzero"/></clipPath><clipPath id="2cba0f4306"><path d="M 74 74 L 102.503906 74 L 102.503906 106.914062 L 74 106.914062 Z M 74 74 " clip-rule="nonzero"/></clipPath><clipPath id="8ff2f3fba8"><path d="M 44.753906 74 L 74 74 L 74 106.914062 L 44.753906 106.914062 Z M 44.753906 74 " clip-rule="nonzero"/></clipPath><clipPath id="b007f9ccb7"><path d="M 67.089844 65.621094 L 84.339844 65.621094 L 84.339844 89.621094 L 67.089844 89.621094 Z M 67.089844 65.621094 " clip-rule="nonzero"/></clipPath><clipPath id="e7f26dda7d"><path d="M 76.386719 76.375 C 76.40625 76.355469 76.425781 76.335938 76.441406 76.3125 C 76.433594 76.324219 76.417969 76.34375 76.386719 76.375 C 76.355469 76.40625 76.316406 76.4375 76.257812 76.480469 C 76.277344 76.46875 76.304688 76.445312 76.335938 76.421875 C 76.351562 76.40625 76.367188 76.394531 76.386719 76.375 Z M 74.605469 79.566406 C 74.605469 79.582031 74.601562 79.59375 74.601562 79.597656 C 74.605469 79.582031 74.605469 79.574219 74.605469 79.566406 Z M 72.617188 72.332031 C 72.617188 72.386719 72.617188 72.414062 72.617188 72.429688 C 72.621094 72.371094 72.621094 72.324219 72.617188 72.332031 Z M 74.960938 81.855469 C 74.964844 81.851562 74.964844 81.847656 74.96875 81.847656 C 74.960938 81.855469 74.953125 81.867188 74.945312 81.875 C 74.949219 81.867188 74.957031 81.863281 74.960938 81.855469 Z M 74.980469 81.828125 C 74.976562 81.832031 74.972656 81.835938 74.972656 81.84375 C 74.972656 81.835938 74.976562 81.832031 74.980469 81.828125 Z M 74.96875 81.84375 C 74.96875 81.84375 74.96875 81.84375 74.972656 81.84375 C 74.96875 81.84375 74.96875 81.84375 74.96875 81.847656 C 74.96875 81.847656 74.96875 81.847656 74.96875 81.84375 Z M 73.289062 86.386719 C 73.289062 86.433594 73.289062 86.476562 73.289062 86.523438 C 73.289062 86.480469 73.289062 86.433594 73.289062 86.386719 Z M 74.945312 81.875 C 74.941406 81.878906 74.9375 81.882812 74.933594 81.886719 C 74.9375 81.882812 74.941406 81.878906 74.945312 81.875 Z M 73.289062 86.523438 C 73.289062 86.527344 73.289062 86.53125 73.289062 86.535156 C 73.289062 86.53125 73.289062 86.527344 73.289062 86.523438 Z M 74.984375 81.816406 C 74.984375 81.820312 74.980469 81.824219 74.980469 81.828125 C 74.980469 81.824219 74.984375 81.820312 74.984375 81.816406 Z M 74.832031 81.976562 C 74.8125 81.996094 74.792969 82.019531 74.773438 82.046875 C 74.796875 82.019531 74.8125 81.996094 74.832031 81.976562 C 74.847656 81.960938 74.871094 81.941406 74.894531 81.921875 C 74.90625 81.910156 74.917969 81.898438 74.933594 81.886719 C 74.921875 81.898438 74.910156 81.90625 74.898438 81.917969 C 74.875 81.9375 74.851562 81.957031 74.832031 81.976562 Z M 74.367188 82.488281 C 74.355469 82.5 74.34375 82.515625 74.328125 82.53125 C 74.34375 82.511719 74.359375 82.5 74.367188 82.488281 Z M 74.984375 81.816406 C 74.988281 81.8125 74.988281 81.808594 74.992188 81.804688 C 74.988281 81.808594 74.988281 81.8125 74.984375 81.816406 Z M 75.453125 81.6875 C 75.457031 81.6875 75.457031 81.6875 75.460938 81.6875 C 75.457031 81.6875 75.453125 81.6875 75.453125 81.6875 Z M 75.445312 81.691406 C 75.445312 81.691406 75.449219 81.691406 75.453125 81.6875 C 75.445312 81.691406 75.441406 81.691406 75.4375 81.691406 C 75.4375 81.691406 75.441406 81.691406 75.445312 81.691406 Z M 75.402344 81.695312 C 75.414062 81.695312 75.425781 81.691406 75.4375 81.691406 C 75.425781 81.691406 75.414062 81.695312 75.402344 81.695312 Z M 73.785156 83.082031 Z M 83.78125 77.359375 C 83.773438 77.371094 83.769531 77.382812 83.761719 77.394531 C 83.765625 77.386719 83.773438 77.371094 83.78125 77.359375 Z M 75.390625 81.695312 C 75.394531 81.695312 75.398438 81.695312 75.402344 81.695312 C 75.398438 81.695312 75.394531 81.695312 75.390625 81.695312 Z M 74.992188 81.800781 C 74.992188 81.800781 74.992188 81.800781 74.992188 81.796875 C 74.992188 81.800781 74.992188 81.800781 74.992188 81.804688 C 74.992188 81.800781 74.992188 81.800781 74.992188 81.800781 Z M 75.390625 81.695312 C 75.382812 81.691406 75.371094 81.691406 75.363281 81.691406 C 75.371094 81.691406 75.378906 81.691406 75.390625 81.695312 Z M 69.984375 80.496094 C 70 80.507812 70.011719 80.519531 70.027344 80.527344 C 70.011719 80.519531 70 80.507812 69.984375 80.496094 Z M 77.816406 73.445312 C 77.8125 73.464844 77.8125 73.484375 77.808594 73.503906 C 77.8125 73.484375 77.8125 73.464844 77.816406 73.445312 Z M 73.789062 83.085938 Z M 77.21875 78.457031 C 77.222656 78.453125 77.226562 78.445312 77.234375 78.441406 C 77.230469 78.445312 77.222656 78.453125 77.21875 78.457031 Z M 73.640625 76.550781 C 73.636719 76.542969 73.632812 76.539062 73.628906 76.53125 C 73.632812 76.535156 73.632812 76.539062 73.636719 76.542969 C 73.644531 76.554688 73.65625 76.566406 73.667969 76.578125 C 73.675781 76.585938 73.683594 76.589844 73.6875 76.59375 C 73.671875 76.582031 73.652344 76.566406 73.640625 76.550781 Z M 84.074219 76.699219 C 84.074219 76.707031 84.070312 76.710938 84.070312 76.71875 C 84.0625 76.738281 84.058594 76.753906 84.046875 76.773438 C 84.023438 76.835938 83.980469 76.902344 83.949219 76.976562 C 83.894531 77.109375 83.835938 77.253906 83.78125 77.359375 C 83.828125 77.269531 83.890625 77.117188 83.882812 77.128906 C 83.851562 77.203125 83.816406 77.277344 83.78125 77.347656 C 83.777344 77.351562 83.777344 77.355469 83.773438 77.363281 C 83.773438 77.363281 83.769531 77.367188 83.769531 77.371094 C 83.761719 77.382812 83.757812 77.394531 83.75 77.410156 C 83.742188 77.417969 83.738281 77.429688 83.730469 77.4375 C 83.691406 77.503906 83.652344 77.570312 83.609375 77.636719 C 83.644531 77.585938 83.621094 77.621094 83.574219 77.707031 C 83.519531 77.800781 83.441406 77.972656 83.351562 78.109375 C 83.332031 78.128906 83.375 78.050781 83.40625 77.996094 C 83.40625 77.996094 83.410156 77.996094 83.410156 77.992188 C 83.398438 78.011719 83.390625 78.027344 83.378906 78.042969 C 83.308594 78.152344 83.257812 78.277344 83.1875 78.386719 C 83.109375 78.5 83.027344 78.609375 82.949219 78.722656 C 82.871094 78.835938 82.789062 78.945312 82.710938 79.054688 C 82.699219 79.070312 82.6875 79.085938 82.675781 79.097656 C 82.636719 79.15625 82.566406 79.246094 82.496094 79.332031 C 82.421875 79.4375 82.332031 79.535156 82.289062 79.585938 C 82.242188 79.640625 82.242188 79.648438 82.320312 79.5625 C 82.410156 79.46875 82.460938 79.402344 82.492188 79.359375 C 82.523438 79.316406 82.535156 79.300781 82.546875 79.285156 C 82.566406 79.253906 82.578125 79.242188 82.695312 79.09375 C 82.621094 79.203125 82.539062 79.304688 82.460938 79.410156 C 82.480469 79.386719 82.496094 79.367188 82.507812 79.351562 C 82.480469 79.386719 82.449219 79.425781 82.417969 79.464844 C 82.460938 79.417969 82.515625 79.347656 82.589844 79.261719 C 82.625 79.21875 82.664062 79.167969 82.707031 79.113281 C 82.746094 79.058594 82.789062 79 82.832031 78.933594 C 82.800781 78.980469 82.757812 79.042969 82.707031 79.117188 C 82.652344 79.191406 82.585938 79.265625 82.519531 79.347656 C 82.460938 79.425781 82.386719 79.511719 82.320312 79.582031 C 82.253906 79.652344 82.199219 79.71875 82.15625 79.777344 C 82.140625 79.789062 82.085938 79.851562 82.019531 79.929688 C 81.949219 80.011719 81.851562 80.097656 81.769531 80.175781 C 81.714844 80.226562 81.664062 80.285156 81.605469 80.332031 L 81.433594 80.480469 C 81.320312 80.582031 81.191406 80.667969 81.0625 80.746094 C 81.039062 80.75 81.285156 80.617188 81.410156 80.496094 C 81.460938 80.449219 81.417969 80.480469 81.316406 80.5625 C 81.261719 80.601562 81.191406 80.648438 81.105469 80.699219 C 81.019531 80.75 80.921875 80.808594 80.820312 80.882812 C 80.90625 80.824219 80.8125 80.898438 80.714844 80.960938 C 80.664062 80.992188 80.613281 81.015625 80.585938 81.027344 C 80.5625 81.039062 80.566406 81.039062 80.621094 81.015625 C 80.449219 81.097656 80.300781 81.148438 80.132812 81.191406 C 80.050781 81.214844 79.960938 81.230469 79.863281 81.25 C 79.761719 81.265625 79.65625 81.296875 79.53125 81.328125 C 79.707031 81.289062 79.644531 81.304688 79.554688 81.328125 C 79.464844 81.351562 79.347656 81.375 79.417969 81.363281 C 79.308594 81.382812 79.171875 81.40625 79.054688 81.425781 C 78.933594 81.445312 78.839844 81.476562 78.796875 81.488281 C 78.714844 81.507812 78.679688 81.507812 78.757812 81.480469 C 78.632812 81.515625 78.566406 81.53125 78.527344 81.539062 C 78.488281 81.546875 78.476562 81.550781 78.464844 81.554688 C 78.441406 81.558594 78.40625 81.574219 78.113281 81.585938 C 78.207031 81.582031 78.296875 81.578125 78.390625 81.570312 C 78.296875 81.582031 78.226562 81.585938 78.160156 81.589844 C 78.09375 81.597656 78.03125 81.597656 77.960938 81.59375 C 77.890625 81.589844 77.816406 81.582031 77.722656 81.578125 C 77.628906 81.578125 77.511719 81.585938 77.363281 81.59375 C 77.363281 81.59375 77.398438 81.59375 77.40625 81.59375 C 77.410156 81.597656 77.410156 81.597656 77.394531 81.597656 C 77.378906 81.597656 77.347656 81.601562 77.300781 81.605469 C 77.304688 81.601562 77.3125 81.601562 77.316406 81.601562 C 77.320312 81.601562 77.320312 81.601562 77.320312 81.601562 C 77.324219 81.601562 77.308594 81.601562 77.300781 81.601562 C 77.289062 81.601562 77.269531 81.605469 77.242188 81.617188 C 77.214844 81.625 77.179688 81.648438 77.125 81.652344 C 77.078125 81.652344 77.03125 81.648438 76.980469 81.636719 C 76.929688 81.628906 76.882812 81.617188 76.832031 81.613281 C 76.804688 81.613281 76.78125 81.613281 76.753906 81.617188 C 76.730469 81.621094 76.699219 81.625 76.667969 81.625 C 76.613281 81.628906 76.554688 81.628906 76.496094 81.628906 C 76.378906 81.625 76.277344 81.625 76.183594 81.640625 C 76.085938 81.65625 75.984375 81.652344 75.894531 81.644531 C 75.804688 81.636719 75.71875 81.625 75.636719 81.625 C 75.605469 81.628906 75.566406 81.648438 75.519531 81.667969 C 75.503906 81.675781 75.484375 81.679688 75.460938 81.6875 C 75.492188 81.679688 75.519531 81.667969 75.542969 81.65625 C 75.570312 81.644531 75.597656 81.632812 75.621094 81.628906 C 75.640625 81.625 75.667969 81.625 75.691406 81.625 C 75.746094 81.625 75.789062 81.632812 75.824219 81.632812 C 75.839844 81.636719 75.855469 81.636719 75.863281 81.636719 C 75.871094 81.636719 75.878906 81.636719 75.878906 81.636719 C 75.796875 81.628906 75.722656 81.621094 75.644531 81.621094 C 75.617188 81.621094 75.582031 81.632812 75.546875 81.648438 C 75.511719 81.664062 75.472656 81.683594 75.421875 81.6875 C 75.375 81.691406 75.335938 81.683594 75.300781 81.683594 C 75.261719 81.679688 75.226562 81.683594 75.191406 81.691406 C 75.15625 81.699219 75.121094 81.710938 75.085938 81.730469 C 75.054688 81.742188 75.011719 81.765625 75 81.777344 C 75 81.78125 74.996094 81.789062 74.992188 81.796875 C 74.996094 81.785156 74.996094 81.78125 75 81.777344 C 75.007812 81.769531 75.011719 81.765625 75.023438 81.761719 C 75.03125 81.753906 75.042969 81.75 75.046875 81.746094 C 75.042969 81.75 75.03125 81.75 75.019531 81.757812 C 75.011719 81.761719 75.003906 81.765625 74.996094 81.773438 C 74.996094 81.777344 74.992188 81.785156 74.992188 81.789062 C 74.988281 81.796875 74.984375 81.808594 74.980469 81.816406 C 74.96875 81.839844 74.953125 81.859375 74.9375 81.875 C 74.90625 81.910156 74.867188 81.933594 74.839844 81.964844 C 74.8125 81.988281 74.789062 82.027344 74.761719 82.054688 C 74.753906 82.0625 74.746094 82.070312 74.742188 82.074219 C 74.734375 82.078125 74.730469 82.085938 74.726562 82.089844 C 74.714844 82.101562 74.707031 82.109375 74.703125 82.117188 C 74.710938 82.105469 74.722656 82.089844 74.738281 82.074219 C 74.753906 82.058594 74.773438 82.039062 74.789062 82.019531 C 74.804688 81.996094 74.820312 81.976562 74.835938 81.960938 C 74.855469 81.945312 74.871094 81.929688 74.890625 81.914062 C 74.925781 81.882812 74.949219 81.855469 74.957031 81.847656 C 74.960938 81.835938 74.953125 81.855469 74.90625 81.894531 C 74.871094 81.925781 74.828125 81.953125 74.796875 81.996094 C 74.78125 82.015625 74.761719 82.039062 74.738281 82.0625 C 74.71875 82.082031 74.699219 82.101562 74.679688 82.125 C 74.644531 82.171875 74.609375 82.230469 74.5625 82.277344 C 74.515625 82.328125 74.46875 82.375 74.421875 82.421875 C 74.371094 82.46875 74.332031 82.519531 74.28125 82.570312 C 74.234375 82.621094 74.183594 82.664062 74.136719 82.707031 C 74.039062 82.796875 73.96875 82.898438 73.898438 82.984375 C 73.988281 82.859375 73.933594 82.925781 74.023438 82.800781 C 73.992188 82.835938 73.957031 82.882812 73.914062 82.9375 C 73.894531 82.964844 73.875 82.992188 73.851562 83.019531 C 73.835938 83.03125 73.824219 83.046875 73.8125 83.058594 L 73.789062 83.082031 C 73.789062 83.082031 73.789062 83.082031 73.789062 83.085938 C 73.789062 83.085938 73.792969 83.085938 73.792969 83.085938 C 73.792969 83.085938 73.792969 83.085938 73.796875 83.085938 L 73.800781 83.082031 L 73.796875 83.085938 C 73.800781 83.085938 73.804688 83.089844 73.808594 83.089844 L 73.835938 83.0625 L 73.878906 83.011719 C 73.90625 82.980469 73.9375 82.945312 73.960938 82.910156 C 74.015625 82.84375 74.070312 82.78125 74.125 82.730469 C 74.179688 82.679688 74.234375 82.632812 74.273438 82.589844 C 74.296875 82.570312 74.3125 82.550781 74.328125 82.53125 C 74.3125 82.550781 74.292969 82.570312 74.273438 82.59375 C 74.234375 82.632812 74.191406 82.671875 74.148438 82.710938 C 74.0625 82.789062 73.992188 82.878906 73.9375 82.945312 C 73.808594 83.109375 73.925781 82.96875 74.027344 82.847656 C 74.078125 82.785156 74.132812 82.738281 74.148438 82.726562 C 74.164062 82.714844 74.132812 82.734375 74.046875 82.835938 C 74.003906 82.886719 73.964844 82.9375 73.921875 82.984375 C 73.902344 83.011719 73.882812 83.035156 73.863281 83.058594 L 73.820312 83.101562 C 73.824219 83.1875 73.824219 83.269531 73.824219 83.355469 C 73.824219 83.398438 73.824219 83.441406 73.824219 83.484375 C 73.824219 83.527344 73.820312 83.574219 73.816406 83.621094 C 73.808594 83.710938 73.792969 83.800781 73.792969 83.894531 C 73.789062 83.992188 73.800781 84.097656 73.800781 84.214844 C 73.796875 84.144531 73.789062 84.21875 73.785156 84.371094 C 73.789062 84.464844 73.804688 84.597656 73.796875 84.746094 C 73.792969 84.820312 73.789062 84.898438 73.785156 84.980469 C 73.78125 85.058594 73.78125 85.144531 73.78125 85.230469 C 73.777344 85.316406 73.777344 85.40625 73.777344 85.492188 C 73.78125 85.578125 73.796875 85.664062 73.808594 85.753906 C 73.84375 85.929688 73.789062 86.105469 73.804688 86.25 C 73.792969 86.15625 73.804688 86.082031 73.808594 86.023438 C 73.808594 85.964844 73.8125 85.917969 73.808594 85.878906 C 73.800781 85.8125 73.789062 85.757812 73.777344 85.671875 C 73.78125 85.71875 73.789062 85.765625 73.792969 85.8125 C 73.792969 85.816406 73.792969 85.824219 73.796875 85.828125 C 73.796875 85.832031 73.796875 85.839844 73.796875 85.84375 C 73.796875 85.847656 73.796875 85.855469 73.796875 85.859375 C 73.796875 85.863281 73.796875 85.867188 73.796875 85.871094 C 73.796875 85.882812 73.796875 85.894531 73.796875 85.90625 C 73.796875 85.90625 73.796875 85.910156 73.796875 85.910156 C 73.796875 85.957031 73.792969 86.003906 73.789062 86.050781 C 73.792969 86.035156 73.792969 86.019531 73.792969 86 C 73.785156 86.085938 73.773438 86.175781 73.785156 86.257812 C 73.816406 86.382812 73.894531 86.503906 73.910156 86.636719 C 73.929688 86.761719 73.886719 86.898438 73.898438 87.03125 C 73.910156 87.160156 73.925781 87.289062 73.933594 87.421875 C 73.941406 87.554688 73.953125 87.683594 73.964844 87.8125 C 73.976562 87.945312 74.011719 88.074219 74.035156 88.199219 C 74.054688 88.332031 74.0625 88.464844 74.101562 88.589844 C 74.132812 88.6875 74.203125 88.84375 74.246094 88.984375 C 74.296875 89.144531 74.328125 89.269531 74.144531 89.304688 C 74.074219 89.324219 73.824219 89.40625 73.757812 89.375 C 73.75 89.332031 73.742188 89.289062 73.734375 89.246094 C 73.726562 89.214844 73.722656 89.183594 73.71875 89.160156 C 73.726562 89.21875 73.734375 89.265625 73.738281 89.300781 C 73.746094 89.335938 73.75 89.359375 73.75 89.371094 C 73.753906 89.382812 73.761719 89.382812 73.761719 89.382812 C 73.761719 89.382812 73.753906 89.382812 73.75 89.375 C 73.75 89.375 73.746094 89.367188 73.742188 89.355469 C 73.746094 89.363281 73.746094 89.367188 73.75 89.375 C 73.75 89.382812 73.757812 89.382812 73.765625 89.386719 C 73.773438 89.390625 73.78125 89.390625 73.789062 89.390625 C 73.804688 89.390625 73.820312 89.390625 73.835938 89.390625 C 73.871094 89.386719 73.902344 89.382812 73.9375 89.375 C 74.003906 89.359375 74.078125 89.335938 74.148438 89.316406 C 74.183594 89.308594 74.21875 89.296875 74.246094 89.277344 C 74.277344 89.253906 74.292969 89.214844 74.296875 89.179688 C 74.300781 89.109375 74.277344 89.046875 74.261719 88.992188 C 74.230469 88.882812 74.195312 88.800781 74.1875 88.769531 C 74.234375 88.898438 74.269531 88.992188 74.289062 89.0625 C 74.308594 89.136719 74.308594 89.195312 74.289062 89.234375 C 74.269531 89.277344 74.242188 89.292969 74.222656 89.304688 C 74.199219 89.316406 74.179688 89.324219 74.152344 89.332031 C 74.128906 89.339844 74.097656 89.351562 74.042969 89.367188 C 74.015625 89.375 73.984375 89.382812 73.945312 89.390625 C 73.925781 89.398438 73.90625 89.402344 73.882812 89.40625 C 73.871094 89.40625 73.859375 89.410156 73.84375 89.410156 C 73.828125 89.414062 73.808594 89.414062 73.792969 89.414062 C 73.800781 89.414062 73.820312 89.414062 73.847656 89.414062 C 73.867188 89.410156 73.894531 89.40625 73.925781 89.402344 C 73.988281 89.390625 74.070312 89.367188 74.15625 89.339844 L 74.152344 89.339844 C 74.1875 89.332031 74.226562 89.324219 74.265625 89.292969 C 74.304688 89.265625 74.324219 89.210938 74.324219 89.167969 C 74.316406 89.089844 74.308594 89.085938 74.300781 89.054688 C 74.289062 89.027344 74.273438 88.976562 74.21875 88.832031 C 74.171875 88.699219 74.117188 88.574219 74.097656 88.433594 C 74.085938 88.363281 74.074219 88.289062 74.066406 88.21875 C 74.054688 88.144531 74.035156 88.070312 74.019531 87.996094 C 73.984375 87.847656 73.980469 87.691406 73.964844 87.53125 C 73.953125 87.371094 73.9375 87.207031 73.921875 87.035156 C 73.925781 87 73.933594 87.101562 73.945312 87.214844 C 73.953125 87.269531 73.957031 87.324219 73.960938 87.371094 C 73.964844 87.414062 73.96875 87.445312 73.972656 87.445312 C 73.980469 87.53125 73.984375 87.621094 73.992188 87.703125 C 74 87.789062 74.003906 87.867188 74.023438 87.945312 C 74.039062 88.023438 74.054688 88.101562 74.070312 88.175781 C 74.082031 88.25 74.089844 88.324219 74.101562 88.394531 C 74.113281 88.460938 74.125 88.527344 74.148438 88.589844 C 74.167969 88.648438 74.191406 88.710938 74.214844 88.769531 C 74.238281 88.828125 74.261719 88.886719 74.28125 88.945312 C 74.300781 89.003906 74.324219 89.0625 74.332031 89.128906 C 74.332031 89.148438 74.332031 89.171875 74.328125 89.199219 C 74.324219 89.222656 74.3125 89.25 74.292969 89.273438 C 74.253906 89.320312 74.203125 89.335938 74.15625 89.34375 C 74.097656 89.359375 74.035156 89.378906 73.96875 89.394531 C 73.933594 89.402344 73.898438 89.410156 73.863281 89.414062 C 73.847656 89.414062 73.816406 89.417969 73.792969 89.417969 C 73.78125 89.417969 73.769531 89.414062 73.757812 89.410156 C 73.746094 89.40625 73.734375 89.40625 73.726562 89.398438 C 73.703125 89.300781 73.695312 89.25 73.6875 89.179688 C 73.679688 89.117188 73.667969 89.050781 73.652344 88.984375 C 73.628906 88.847656 73.601562 88.703125 73.574219 88.558594 C 73.542969 88.417969 73.476562 88.265625 73.472656 88.101562 C 73.46875 88.019531 73.472656 87.9375 73.46875 87.859375 C 73.460938 87.78125 73.445312 87.699219 73.433594 87.617188 C 73.417969 87.523438 73.410156 87.457031 73.40625 87.417969 C 73.398438 87.375 73.394531 87.355469 73.394531 87.351562 C 73.394531 87.347656 73.398438 87.394531 73.40625 87.453125 C 73.414062 87.511719 73.417969 87.570312 73.421875 87.578125 C 73.421875 87.585938 73.410156 87.539062 73.390625 87.382812 C 73.394531 87.390625 73.386719 87.300781 73.359375 87.128906 C 73.351562 87.085938 73.347656 87.035156 73.34375 86.984375 C 73.335938 86.933594 73.328125 86.878906 73.316406 86.816406 C 73.304688 86.753906 73.296875 86.6875 73.292969 86.617188 C 73.289062 86.589844 73.289062 86.5625 73.289062 86.535156 C 73.289062 86.578125 73.292969 86.621094 73.296875 86.664062 C 73.304688 86.757812 73.324219 86.847656 73.339844 86.9375 C 73.34375 86.972656 73.339844 86.953125 73.34375 86.988281 C 73.355469 87.152344 73.390625 87.277344 73.402344 87.363281 C 73.410156 87.40625 73.417969 87.4375 73.417969 87.460938 C 73.421875 87.484375 73.425781 87.496094 73.425781 87.496094 C 73.417969 87.4375 73.414062 87.375 73.398438 87.300781 C 73.386719 87.226562 73.367188 87.148438 73.359375 87.066406 C 73.347656 86.902344 73.300781 86.734375 73.296875 86.59375 C 73.300781 86.585938 73.300781 86.628906 73.308594 86.675781 C 73.308594 86.695312 73.3125 86.71875 73.316406 86.738281 C 73.320312 86.753906 73.320312 86.765625 73.324219 86.765625 C 73.292969 86.609375 73.308594 86.429688 73.304688 86.277344 C 73.304688 86.265625 73.304688 86.257812 73.304688 86.246094 C 73.304688 86.238281 73.300781 86.230469 73.300781 86.222656 C 73.296875 86.203125 73.296875 86.183594 73.292969 86.167969 C 73.285156 86.132812 73.28125 86.101562 73.277344 86.074219 C 73.265625 86.015625 73.257812 85.972656 73.25 85.945312 L 73.261719 86.015625 L 73.222656 85.789062 C 73.214844 85.707031 73.21875 85.628906 73.222656 85.554688 C 73.214844 85.605469 73.210938 85.671875 73.207031 85.675781 C 73.207031 85.675781 73.207031 85.660156 73.207031 85.617188 C 73.207031 85.574219 73.210938 85.503906 73.214844 85.402344 C 73.210938 85.214844 73.15625 85.046875 73.152344 84.878906 C 73.144531 84.722656 73.113281 84.574219 73.113281 84.421875 L 73.121094 84.445312 L 73.125 84.425781 L 73.125 84.421875 L 73.140625 84.421875 C 73.140625 84.417969 73.140625 84.417969 73.144531 84.417969 C 73.144531 84.417969 73.140625 84.417969 73.140625 84.414062 L 73.136719 84.410156 C 73.132812 84.40625 73.121094 84.386719 73.113281 84.371094 C 73.105469 84.359375 73.097656 84.34375 73.089844 84.328125 C 73.074219 84.300781 73.058594 84.269531 73.042969 84.238281 C 73.015625 84.179688 72.988281 84.121094 72.957031 84.0625 C 72.925781 84 72.890625 83.933594 72.859375 83.867188 C 72.828125 83.800781 72.800781 83.71875 72.773438 83.648438 C 72.792969 83.6875 72.804688 83.730469 72.824219 83.777344 C 72.839844 83.820312 72.859375 83.863281 72.878906 83.902344 C 72.847656 83.832031 72.820312 83.765625 72.796875 83.691406 C 72.773438 83.617188 72.738281 83.535156 72.691406 83.421875 C 72.703125 83.464844 72.714844 83.496094 72.691406 83.453125 C 72.679688 83.429688 72.664062 83.390625 72.632812 83.316406 C 72.605469 83.246094 72.574219 83.136719 72.539062 83 C 72.527344 82.945312 72.511719 82.886719 72.492188 82.828125 C 72.472656 82.769531 72.4375 82.695312 72.410156 82.621094 C 72.382812 82.546875 72.355469 82.46875 72.324219 82.386719 C 72.292969 82.304688 72.253906 82.230469 72.210938 82.148438 C 72.167969 82.070312 72.117188 81.980469 72.078125 81.902344 C 72.054688 81.863281 72.027344 81.820312 72.007812 81.769531 L 71.980469 81.707031 L 71.964844 81.671875 C 71.964844 81.664062 71.953125 81.648438 71.957031 81.648438 C 71.957031 81.644531 71.953125 81.644531 71.949219 81.640625 L 71.933594 81.628906 C 71.914062 81.621094 71.894531 81.609375 71.875 81.597656 C 71.839844 81.578125 71.792969 81.554688 71.753906 81.523438 C 71.671875 81.46875 71.613281 81.40625 71.554688 81.355469 C 71.535156 81.335938 71.5625 81.351562 71.609375 81.394531 C 71.660156 81.433594 71.730469 81.503906 71.824219 81.550781 C 71.867188 81.574219 71.910156 81.597656 71.949219 81.621094 C 71.957031 81.621094 71.960938 81.625 71.96875 81.628906 C 71.976562 81.632812 71.976562 81.636719 71.976562 81.644531 C 71.984375 81.660156 71.992188 81.679688 71.996094 81.695312 C 72.027344 81.761719 72.054688 81.808594 72.054688 81.800781 C 72.023438 81.742188 72.007812 81.695312 71.992188 81.652344 L 71.984375 81.636719 C 71.988281 81.640625 71.988281 81.632812 71.988281 81.628906 C 71.988281 81.625 71.984375 81.625 71.980469 81.621094 L 71.972656 81.617188 C 71.957031 81.609375 71.945312 81.597656 71.929688 81.589844 C 71.902344 81.574219 71.878906 81.558594 71.855469 81.546875 C 71.828125 81.53125 71.804688 81.519531 71.78125 81.5 C 71.734375 81.46875 71.6875 81.425781 71.621094 81.363281 C 71.589844 81.335938 71.550781 81.300781 71.503906 81.269531 C 71.453125 81.238281 71.390625 81.203125 71.316406 81.160156 C 71.277344 81.136719 71.21875 81.101562 71.152344 81.066406 C 71.089844 81.03125 71.015625 81.003906 70.949219 80.976562 C 70.820312 80.921875 70.726562 80.871094 70.777344 80.90625 C 70.925781 80.980469 71.046875 81.015625 71.152344 81.070312 C 71.257812 81.132812 71.359375 81.191406 71.492188 81.265625 C 71.484375 81.265625 71.347656 81.1875 71.207031 81.105469 C 71.136719 81.0625 71.066406 81.03125 71.003906 81.003906 C 70.945312 80.980469 70.898438 80.964844 70.886719 80.960938 C 70.988281 81.003906 71.085938 81.042969 71.175781 81.097656 C 71.070312 81.039062 71.007812 81.019531 70.96875 81.003906 C 70.929688 80.988281 70.914062 80.984375 70.894531 80.976562 C 70.875 80.972656 70.855469 80.964844 70.804688 80.941406 C 70.75 80.917969 70.667969 80.871094 70.546875 80.785156 C 70.511719 80.757812 70.476562 80.734375 70.441406 80.710938 C 70.40625 80.683594 70.375 80.667969 70.335938 80.652344 C 70.261719 80.621094 70.175781 80.597656 70.09375 80.554688 C 70 80.503906 69.957031 80.457031 69.929688 80.4375 C 69.90625 80.417969 69.898438 80.414062 69.90625 80.421875 C 69.914062 80.433594 69.949219 80.464844 69.984375 80.496094 C 69.917969 80.441406 69.859375 80.378906 69.796875 80.335938 C 69.726562 80.289062 69.636719 80.25 69.5625 80.210938 C 69.492188 80.175781 69.425781 80.136719 69.378906 80.105469 C 69.417969 80.128906 69.445312 80.148438 69.46875 80.160156 C 69.511719 80.183594 69.523438 80.1875 69.523438 80.183594 C 69.492188 80.167969 69.457031 80.148438 69.429688 80.128906 C 69.402344 80.109375 69.375 80.09375 69.347656 80.078125 C 69.289062 80.046875 69.234375 80.015625 69.183594 79.984375 C 69.078125 79.917969 68.996094 79.839844 68.910156 79.761719 C 68.828125 79.6875 68.75 79.59375 68.667969 79.496094 C 68.628906 79.449219 68.582031 79.40625 68.53125 79.355469 C 68.476562 79.304688 68.417969 79.246094 68.367188 79.175781 C 68.421875 79.25 68.488281 79.3125 68.550781 79.371094 C 68.617188 79.429688 68.667969 79.492188 68.722656 79.558594 C 68.828125 79.6875 68.9375 79.789062 69.011719 79.851562 C 69.074219 79.898438 68.953125 79.792969 68.886719 79.71875 C 68.851562 79.683594 68.828125 79.660156 68.84375 79.671875 C 68.859375 79.6875 68.90625 79.742188 69.03125 79.851562 C 68.953125 79.78125 68.878906 79.707031 68.8125 79.628906 C 68.742188 79.550781 68.683594 79.46875 68.613281 79.398438 C 68.523438 79.320312 68.261719 79.058594 68.558594 79.359375 C 68.488281 79.292969 68.40625 79.21875 68.347656 79.128906 C 68.289062 79.039062 68.238281 78.949219 68.191406 78.871094 C 68.097656 78.707031 68.023438 78.585938 68.007812 78.566406 C 68.023438 78.585938 67.972656 78.507812 67.890625 78.371094 C 67.851562 78.304688 67.808594 78.222656 67.761719 78.132812 C 67.71875 78.042969 67.667969 77.949219 67.621094 77.855469 C 67.574219 77.773438 67.523438 77.683594 67.507812 77.660156 C 67.496094 77.636719 67.511719 77.675781 67.578125 77.800781 C 67.542969 77.738281 67.503906 77.671875 67.472656 77.597656 C 67.433594 77.496094 67.40625 77.398438 67.382812 77.296875 L 67.410156 77.414062 C 67.398438 77.367188 67.386719 77.320312 67.375 77.273438 C 67.363281 77.230469 67.351562 77.183594 67.34375 77.132812 C 67.328125 77.03125 67.335938 76.933594 67.328125 76.84375 C 67.332031 76.867188 67.332031 76.925781 67.335938 77 C 67.335938 77.039062 67.339844 77.082031 67.34375 77.125 C 67.347656 77.144531 67.351562 77.167969 67.355469 77.191406 C 67.363281 77.210938 67.367188 77.230469 67.371094 77.25 C 67.410156 77.402344 67.449219 77.527344 67.433594 77.460938 C 67.417969 77.410156 67.402344 77.355469 67.390625 77.296875 C 67.375 77.242188 67.359375 77.191406 67.351562 77.136719 C 67.335938 77.035156 67.339844 76.972656 67.34375 76.996094 C 67.339844 76.921875 67.339844 76.84375 67.328125 76.773438 C 67.320312 76.703125 67.296875 76.636719 67.277344 76.582031 C 67.234375 76.46875 67.21875 76.394531 67.230469 76.457031 C 67.25 76.539062 67.277344 76.605469 67.292969 76.660156 C 67.3125 76.714844 67.316406 76.757812 67.320312 76.78125 C 67.308594 76.710938 67.289062 76.652344 67.269531 76.597656 C 67.253906 76.542969 67.238281 76.5 67.226562 76.457031 C 67.203125 76.371094 67.199219 76.3125 67.195312 76.25 C 67.1875 76.191406 67.183594 76.125 67.179688 76.03125 C 67.175781 76.007812 67.175781 75.984375 67.171875 75.953125 C 67.171875 75.925781 67.171875 75.890625 67.175781 75.855469 C 67.183594 75.78125 67.207031 75.707031 67.210938 75.625 C 67.210938 75.640625 67.210938 75.65625 67.207031 75.671875 C 67.203125 75.695312 67.21875 75.644531 67.21875 75.582031 C 67.21875 75.515625 67.199219 75.425781 67.183594 75.367188 C 67.144531 75.21875 67.15625 75.261719 67.167969 75.324219 C 67.183594 75.386719 67.203125 75.46875 67.183594 75.402344 C 67.171875 75.347656 67.15625 75.292969 67.144531 75.238281 C 67.132812 75.179688 67.117188 75.125 67.121094 75.054688 C 67.121094 74.988281 67.144531 74.929688 67.15625 74.878906 C 67.160156 74.855469 67.164062 74.832031 67.167969 74.808594 C 67.167969 74.78125 67.167969 74.757812 67.167969 74.734375 C 67.167969 74.792969 67.164062 74.832031 67.15625 74.859375 C 67.152344 74.890625 67.144531 74.910156 67.136719 74.929688 C 67.128906 74.96875 67.117188 74.992188 67.109375 75.050781 C 67.113281 74.992188 67.128906 74.945312 67.136719 74.902344 C 67.148438 74.863281 67.15625 74.832031 67.15625 74.796875 C 67.164062 74.722656 67.160156 74.660156 67.15625 74.597656 C 67.15625 74.566406 67.15625 74.535156 67.152344 74.507812 C 67.152344 74.476562 67.148438 74.460938 67.144531 74.433594 C 67.136719 74.386719 67.125 74.339844 67.113281 74.289062 C 67.101562 74.242188 67.09375 74.1875 67.097656 74.132812 C 67.097656 74.078125 67.105469 74.027344 67.117188 73.972656 C 67.125 73.917969 67.136719 73.863281 67.144531 73.800781 C 67.148438 73.769531 67.152344 73.738281 67.152344 73.707031 C 67.152344 73.667969 67.15625 73.625 67.164062 73.582031 C 67.179688 73.507812 67.210938 73.429688 67.230469 73.339844 C 67.242188 73.296875 67.246094 73.253906 67.242188 73.207031 C 67.242188 73.160156 67.230469 73.109375 67.226562 73.050781 C 67.21875 72.996094 67.210938 72.929688 67.21875 72.871094 C 67.222656 72.808594 67.230469 72.75 67.238281 72.6875 C 67.242188 72.660156 67.246094 72.628906 67.25 72.597656 L 67.257812 72.554688 C 67.261719 72.535156 67.269531 72.511719 67.28125 72.492188 C 67.300781 72.457031 67.324219 72.433594 67.34375 72.410156 C 67.363281 72.390625 67.375 72.367188 67.378906 72.363281 C 67.378906 72.347656 67.378906 72.347656 67.359375 72.316406 C 67.351562 72.300781 67.34375 72.289062 67.335938 72.261719 C 67.324219 72.238281 67.324219 72.210938 67.328125 72.1875 C 67.339844 72.144531 67.355469 72.117188 67.367188 72.089844 C 67.382812 72.0625 67.394531 72.035156 67.40625 72.007812 C 67.457031 71.921875 67.4375 71.808594 67.476562 71.691406 C 67.449219 71.78125 67.453125 71.847656 67.441406 71.90625 C 67.4375 71.9375 67.433594 71.957031 67.421875 71.980469 C 67.414062 72.003906 67.398438 72.03125 67.386719 72.054688 C 67.375 72.078125 67.363281 72.105469 67.351562 72.132812 C 67.347656 72.144531 67.339844 72.160156 67.335938 72.175781 C 67.332031 72.191406 67.324219 72.214844 67.328125 72.234375 C 67.332031 72.253906 67.34375 72.277344 67.347656 72.289062 L 67.367188 72.324219 L 67.375 72.339844 C 67.378906 72.34375 67.378906 72.34375 67.378906 72.347656 C 67.378906 72.351562 67.382812 72.359375 67.378906 72.363281 C 67.378906 72.367188 67.375 72.367188 67.375 72.371094 C 67.371094 72.378906 67.367188 72.382812 67.359375 72.390625 C 67.351562 72.40625 67.335938 72.417969 67.320312 72.4375 C 67.304688 72.453125 67.289062 72.476562 67.273438 72.503906 C 67.269531 72.519531 67.261719 72.535156 67.261719 72.550781 C 67.257812 72.5625 67.257812 72.578125 67.253906 72.589844 C 67.238281 72.6875 67.21875 72.796875 67.21875 72.9375 C 67.21875 72.902344 67.21875 72.917969 67.222656 72.953125 C 67.222656 72.992188 67.230469 73.042969 67.238281 73.074219 C 67.242188 73.105469 67.246094 73.125 67.242188 73.089844 C 67.238281 73.074219 67.234375 73.042969 67.230469 72.996094 C 67.230469 72.972656 67.230469 72.945312 67.230469 72.910156 C 67.230469 72.875 67.234375 72.839844 67.238281 72.796875 C 67.246094 72.722656 67.257812 72.648438 67.269531 72.570312 C 67.273438 72.554688 67.277344 72.519531 67.289062 72.5 C 67.300781 72.476562 67.316406 72.460938 67.332031 72.445312 C 67.34375 72.425781 67.359375 72.414062 67.371094 72.398438 C 67.375 72.390625 67.378906 72.386719 67.382812 72.378906 C 67.386719 72.375 67.386719 72.371094 67.390625 72.363281 C 67.394531 72.355469 67.390625 72.347656 67.386719 72.339844 C 67.382812 72.332031 67.371094 72.3125 67.363281 72.296875 C 67.359375 72.289062 67.355469 72.28125 67.351562 72.269531 C 67.34375 72.257812 67.339844 72.242188 67.339844 72.230469 C 67.335938 72.203125 67.34375 72.171875 67.351562 72.15625 C 67.378906 72.082031 67.421875 72.015625 67.441406 71.960938 C 67.457031 71.898438 67.457031 71.824219 67.472656 71.75 C 67.476562 71.730469 67.480469 71.707031 67.488281 71.6875 C 67.5 71.667969 67.507812 71.652344 67.523438 71.628906 C 67.558594 71.585938 67.617188 71.570312 67.664062 71.554688 C 67.683594 71.578125 67.710938 71.605469 67.730469 71.625 C 67.746094 71.640625 67.761719 71.65625 67.777344 71.671875 C 67.792969 71.683594 67.808594 71.699219 67.824219 71.714844 L 67.84375 71.738281 L 67.871094 71.769531 L 67.878906 71.78125 C 67.878906 71.785156 67.882812 71.785156 67.882812 71.789062 C 67.886719 71.792969 67.890625 71.796875 67.894531 71.804688 C 67.902344 71.8125 67.917969 71.828125 67.921875 71.839844 C 67.925781 71.84375 67.925781 71.84375 67.929688 71.847656 C 67.929688 71.847656 67.933594 71.847656 67.9375 71.851562 C 67.960938 71.863281 67.972656 71.878906 67.988281 71.890625 L 68.003906 71.902344 C 68.007812 71.90625 68.023438 71.921875 68.027344 71.925781 C 68.046875 71.953125 68.066406 71.976562 68.085938 72 C 68.128906 72.046875 68.167969 72.09375 68.199219 72.140625 C 68.269531 72.238281 68.308594 72.328125 68.351562 72.386719 C 68.339844 72.367188 68.320312 72.332031 68.300781 72.292969 C 68.277344 72.25 68.246094 72.191406 68.207031 72.136719 C 68.167969 72.082031 68.121094 72.027344 68.078125 71.980469 C 68.054688 71.957031 68.035156 71.929688 68.011719 71.90625 C 68.003906 71.898438 68.003906 71.898438 67.996094 71.894531 L 67.980469 71.878906 C 67.96875 71.867188 67.957031 71.855469 67.9375 71.847656 C 67.9375 71.847656 67.933594 71.84375 67.929688 71.84375 C 67.929688 71.839844 67.929688 71.839844 67.925781 71.835938 C 67.914062 71.816406 67.894531 71.796875 67.890625 71.789062 C 67.890625 71.785156 67.886719 71.78125 67.886719 71.777344 C 67.886719 71.777344 67.886719 71.773438 67.882812 71.769531 C 67.882812 71.769531 67.882812 71.765625 67.882812 71.765625 C 67.890625 71.777344 67.890625 71.777344 67.890625 71.78125 C 67.894531 71.785156 67.898438 71.789062 67.902344 71.796875 L 67.914062 71.8125 L 67.925781 71.824219 C 67.925781 71.828125 67.933594 71.835938 67.933594 71.832031 C 67.933594 71.835938 67.933594 71.835938 67.933594 71.839844 C 67.9375 71.839844 67.941406 71.839844 67.941406 71.839844 C 67.976562 71.859375 67.992188 71.882812 68.007812 71.894531 C 68.011719 71.898438 68.023438 71.90625 68.027344 71.914062 L 68.039062 71.929688 L 68.066406 71.957031 C 68.097656 71.996094 68.132812 72.035156 68.167969 72.082031 C 68.199219 72.125 68.234375 72.171875 68.261719 72.21875 C 68.285156 72.265625 68.308594 72.308594 68.332031 72.347656 C 68.355469 72.386719 68.378906 72.417969 68.40625 72.441406 C 68.429688 72.464844 68.457031 72.484375 68.480469 72.5 C 68.535156 72.53125 68.574219 72.5625 68.578125 72.570312 C 68.578125 72.566406 68.585938 72.574219 68.601562 72.589844 C 68.617188 72.605469 68.640625 72.628906 68.65625 72.660156 C 68.699219 72.726562 68.722656 72.8125 68.777344 72.871094 C 68.835938 72.933594 68.914062 72.992188 68.972656 73.0625 C 69.023438 73.128906 69.058594 73.175781 69.074219 73.191406 C 69.019531 73.121094 68.992188 73.082031 68.96875 73.054688 C 68.949219 73.03125 68.941406 73.023438 68.941406 73.023438 C 68.941406 73.023438 68.96875 73.046875 68.945312 73.019531 C 68.976562 73.050781 69.039062 73.144531 69.105469 73.230469 C 69.167969 73.316406 69.226562 73.398438 69.238281 73.410156 C 69.25 73.4375 69.21875 73.398438 69.191406 73.363281 C 69.273438 73.484375 69.328125 73.554688 69.390625 73.636719 C 69.421875 73.675781 69.453125 73.722656 69.492188 73.773438 C 69.53125 73.824219 69.578125 73.886719 69.640625 73.964844 C 69.550781 73.859375 69.632812 73.957031 69.726562 74.097656 C 69.773438 74.167969 69.820312 74.246094 69.855469 74.304688 C 69.871094 74.335938 69.886719 74.359375 69.898438 74.378906 C 69.910156 74.394531 69.914062 74.40625 69.914062 74.40625 C 69.945312 74.445312 69.957031 74.464844 69.964844 74.472656 C 69.972656 74.476562 69.96875 74.476562 69.976562 74.480469 C 69.980469 74.484375 69.988281 74.496094 70.007812 74.535156 C 70.03125 74.570312 70.058594 74.640625 70.101562 74.746094 C 70.074219 74.683594 70.042969 74.605469 70.035156 74.597656 C 70.03125 74.59375 70.039062 74.605469 70.050781 74.644531 C 70.066406 74.679688 70.089844 74.75 70.132812 74.839844 C 70.128906 74.839844 70.101562 74.789062 70.066406 74.695312 C 70.046875 74.652344 70.027344 74.597656 69.996094 74.542969 C 69.984375 74.515625 69.964844 74.484375 69.945312 74.457031 C 69.929688 74.429688 69.914062 74.40625 69.894531 74.378906 C 69.828125 74.273438 69.765625 74.164062 69.714844 74.089844 C 69.664062 74.015625 69.628906 73.976562 69.640625 73.988281 C 69.671875 74.03125 69.714844 74.097656 69.757812 74.167969 C 69.800781 74.238281 69.847656 74.3125 69.886719 74.375 C 69.910156 74.40625 69.929688 74.4375 69.945312 74.460938 C 69.960938 74.488281 69.972656 74.511719 69.980469 74.527344 C 69.996094 74.558594 70 74.558594 69.972656 74.515625 C 70.023438 74.605469 70.054688 74.699219 70.09375 74.785156 C 70.132812 74.886719 70.191406 74.976562 70.261719 75.066406 C 70.296875 75.113281 70.332031 75.15625 70.371094 75.203125 C 70.40625 75.246094 70.449219 75.292969 70.484375 75.347656 C 70.558594 75.453125 70.617188 75.570312 70.6875 75.691406 C 70.761719 75.808594 70.832031 75.941406 70.917969 76.082031 C 71.160156 76.472656 71.160156 76.453125 70.929688 76.074219 C 71.0625 76.285156 71.089844 76.332031 71.125 76.382812 C 71.140625 76.40625 71.152344 76.429688 71.183594 76.476562 C 71.214844 76.523438 71.261719 76.589844 71.335938 76.703125 C 71.316406 76.675781 71.328125 76.695312 71.347656 76.730469 C 71.371094 76.765625 71.390625 76.816406 71.40625 76.847656 C 71.613281 77.261719 71.460938 76.933594 71.589844 77.199219 C 71.628906 77.273438 71.585938 77.199219 71.679688 77.382812 C 71.71875 77.453125 71.761719 77.519531 71.796875 77.59375 C 71.859375 77.75 71.847656 77.730469 71.8125 77.644531 C 71.800781 77.621094 71.789062 77.59375 71.773438 77.566406 C 71.761719 77.539062 71.746094 77.507812 71.726562 77.476562 C 71.695312 77.414062 71.660156 77.351562 71.628906 77.292969 C 71.683594 77.394531 71.730469 77.484375 71.773438 77.566406 C 71.8125 77.65625 71.84375 77.738281 71.871094 77.816406 C 71.886719 77.851562 71.902344 77.886719 71.914062 77.921875 C 71.921875 77.941406 71.929688 77.957031 71.9375 77.972656 C 71.945312 77.992188 71.953125 78.007812 71.960938 78.027344 C 71.988281 78.097656 72.007812 78.164062 72.03125 78.226562 C 72.015625 78.1875 71.992188 78.121094 71.972656 78.070312 C 71.957031 78.019531 71.9375 77.984375 71.945312 78 C 71.984375 78.097656 72.007812 78.179688 72.03125 78.25 C 72.058594 78.320312 72.078125 78.375 72.101562 78.425781 C 72.144531 78.519531 72.183594 78.589844 72.214844 78.65625 C 72.277344 78.789062 72.339844 78.921875 72.382812 79.253906 C 72.367188 79.121094 72.34375 78.980469 72.296875 78.835938 C 72.25 78.691406 72.164062 78.550781 72.09375 78.386719 C 72.074219 78.332031 72.0625 78.277344 72.046875 78.222656 C 72.066406 78.277344 72.089844 78.363281 72.121094 78.433594 C 72.15625 78.503906 72.1875 78.570312 72.203125 78.589844 C 72.164062 78.511719 72.128906 78.4375 72.101562 78.359375 C 72.140625 78.46875 72.21875 78.597656 72.28125 78.765625 C 72.347656 78.929688 72.375 79.121094 72.398438 79.289062 L 72.421875 79.492188 C 72.425781 79.558594 72.433594 79.625 72.449219 79.691406 C 72.441406 79.675781 72.433594 79.636719 72.425781 79.582031 C 72.417969 79.527344 72.40625 79.460938 72.398438 79.382812 C 72.386719 79.308594 72.375 79.226562 72.363281 79.148438 C 72.351562 79.070312 72.335938 78.992188 72.316406 78.929688 C 72.339844 79.027344 72.339844 79.03125 72.332031 78.992188 C 72.320312 78.953125 72.296875 78.867188 72.269531 78.792969 C 72.242188 78.71875 72.207031 78.660156 72.203125 78.652344 C 72.199219 78.644531 72.226562 78.6875 72.28125 78.847656 C 72.339844 79.027344 72.355469 79.203125 72.375 79.355469 C 72.386719 79.433594 72.398438 79.503906 72.40625 79.574219 C 72.417969 79.640625 72.429688 79.703125 72.445312 79.761719 C 72.429688 79.683594 72.414062 79.609375 72.40625 79.53125 C 72.425781 79.714844 72.480469 79.875 72.507812 80.039062 C 72.535156 80.199219 72.535156 80.351562 72.554688 80.492188 C 72.574219 80.636719 72.59375 80.78125 72.609375 80.929688 C 72.617188 81.003906 72.628906 81.078125 72.632812 81.160156 C 72.640625 81.238281 72.640625 81.320312 72.640625 81.40625 C 72.636719 81.527344 72.644531 81.460938 72.644531 81.359375 C 72.648438 81.253906 72.640625 81.109375 72.636719 81.074219 C 72.621094 80.945312 72.597656 80.746094 72.578125 80.582031 C 72.574219 80.539062 72.570312 80.503906 72.566406 80.46875 C 72.5625 80.433594 72.558594 80.402344 72.554688 80.375 C 72.554688 80.351562 72.550781 80.328125 72.550781 80.3125 C 72.550781 80.296875 72.550781 80.289062 72.550781 80.289062 C 72.558594 80.425781 72.582031 80.558594 72.597656 80.710938 C 72.613281 80.855469 72.632812 81 72.644531 81.148438 C 72.652344 81.292969 72.648438 81.425781 72.644531 81.542969 C 72.644531 81.632812 72.683594 81.726562 72.699219 81.800781 C 72.699219 81.800781 72.699219 81.8125 72.707031 81.855469 C 72.707031 81.878906 72.710938 81.90625 72.707031 81.929688 C 72.707031 81.9375 72.703125 81.960938 72.703125 81.960938 L 72.703125 81.964844 C 72.699219 81.96875 72.699219 81.96875 72.703125 81.972656 L 72.703125 81.976562 L 72.710938 81.988281 L 72.722656 82.019531 L 72.746094 82.078125 L 72.71875 82.015625 C 72.769531 82.136719 72.820312 82.296875 72.890625 82.4375 C 72.964844 82.574219 73.050781 82.714844 73.089844 82.832031 C 73.058594 82.742188 73.019531 82.660156 72.976562 82.585938 C 73.011719 82.648438 73.050781 82.71875 73.078125 82.792969 C 73.085938 82.8125 73.09375 82.832031 73.101562 82.851562 L 73.105469 82.875 L 73.117188 82.910156 C 73.125 82.9375 73.128906 82.960938 73.136719 82.984375 L 73.144531 83.007812 L 73.148438 83.015625 C 73.148438 83.019531 73.148438 83.011719 73.148438 83.011719 C 73.148438 82.984375 73.152344 82.964844 73.15625 82.945312 L 73.15625 82.933594 C 73.15625 82.921875 73.15625 82.90625 73.15625 82.894531 C 73.15625 82.867188 73.15625 82.839844 73.15625 82.816406 C 73.15625 82.769531 73.15625 82.722656 73.15625 82.6875 C 73.152344 82.601562 73.15625 82.53125 73.164062 82.472656 C 73.171875 82.414062 73.179688 82.367188 73.191406 82.320312 C 73.199219 82.273438 73.210938 82.222656 73.21875 82.164062 C 73.21875 82.148438 73.222656 82.132812 73.222656 82.117188 L 73.222656 82.101562 C 73.226562 82.09375 73.226562 82.085938 73.226562 82.082031 C 73.230469 82.070312 73.230469 82.0625 73.230469 82.050781 C 73.238281 82.007812 73.25 81.960938 73.261719 81.90625 C 73.28125 81.839844 73.277344 81.871094 73.257812 81.960938 C 73.25 82.003906 73.238281 82.0625 73.230469 82.136719 C 73.226562 82.199219 73.210938 82.269531 73.195312 82.347656 C 73.175781 82.425781 73.164062 82.519531 73.164062 82.601562 C 73.164062 82.683594 73.167969 82.761719 73.167969 82.832031 C 73.171875 82.867188 73.171875 82.898438 73.171875 82.929688 C 73.171875 82.941406 73.171875 82.953125 73.171875 82.964844 C 73.171875 82.984375 73.171875 83 73.171875 83.011719 C 73.175781 82.988281 73.175781 82.964844 73.175781 82.945312 C 73.179688 82.898438 73.175781 82.839844 73.175781 82.789062 C 73.171875 82.679688 73.167969 82.570312 73.183594 82.457031 C 73.199219 82.347656 73.230469 82.246094 73.242188 82.148438 C 73.25 82.039062 73.277344 81.9375 73.300781 81.835938 C 73.308594 81.789062 73.320312 81.738281 73.332031 81.691406 C 73.339844 81.644531 73.34375 81.597656 73.347656 81.546875 C 73.351562 81.5 73.355469 81.449219 73.363281 81.398438 C 73.367188 81.347656 73.378906 81.292969 73.390625 81.246094 C 73.410156 81.152344 73.429688 81.058594 73.449219 80.964844 C 73.460938 80.921875 73.46875 80.875 73.480469 80.832031 C 73.488281 80.789062 73.496094 80.746094 73.503906 80.699219 C 73.484375 80.816406 73.492188 80.753906 73.5 80.699219 C 73.511719 80.640625 73.515625 80.589844 73.488281 80.734375 C 73.5 80.683594 73.511719 80.617188 73.527344 80.542969 C 73.546875 80.464844 73.570312 80.394531 73.589844 80.320312 C 73.628906 80.183594 73.664062 80.0625 73.671875 80.042969 C 73.632812 80.167969 73.605469 80.285156 73.574219 80.398438 C 73.566406 80.425781 73.558594 80.457031 73.550781 80.484375 C 73.542969 80.511719 73.535156 80.542969 73.53125 80.570312 C 73.519531 80.625 73.511719 80.679688 73.5 80.730469 C 73.484375 80.832031 73.464844 80.914062 73.449219 80.996094 C 73.433594 81.074219 73.417969 81.136719 73.410156 81.183594 C 73.460938 80.96875 73.484375 80.863281 73.496094 80.8125 C 73.507812 80.765625 73.507812 80.769531 73.507812 80.777344 C 73.507812 80.78125 73.507812 80.785156 73.519531 80.734375 C 73.523438 80.707031 73.53125 80.667969 73.542969 80.605469 C 73.550781 80.574219 73.558594 80.535156 73.570312 80.492188 C 73.582031 80.449219 73.59375 80.402344 73.609375 80.347656 C 73.648438 80.214844 73.636719 80.253906 73.628906 80.261719 C 73.628906 80.269531 73.628906 80.265625 73.636719 80.234375 C 73.640625 80.21875 73.648438 80.195312 73.65625 80.160156 C 73.667969 80.125 73.679688 80.074219 73.699219 80.015625 C 73.695312 80.03125 73.679688 80.070312 73.660156 80.132812 C 73.640625 80.191406 73.613281 80.28125 73.585938 80.394531 C 73.542969 80.519531 73.59375 80.335938 73.648438 80.148438 C 73.660156 80.101562 73.675781 80.046875 73.691406 80.003906 C 73.707031 79.960938 73.722656 79.921875 73.730469 79.890625 C 73.753906 79.832031 73.761719 79.804688 73.742188 79.847656 C 73.765625 79.785156 73.785156 79.734375 73.800781 79.675781 C 73.820312 79.617188 73.839844 79.558594 73.859375 79.507812 C 73.898438 79.402344 73.929688 79.3125 73.949219 79.222656 C 73.96875 79.136719 73.984375 79.058594 74.003906 78.992188 C 74.019531 78.925781 74.039062 78.871094 74.054688 78.835938 C 74.167969 78.503906 74.035156 78.851562 74.015625 78.910156 C 74.046875 78.796875 74.089844 78.695312 74.117188 78.597656 C 74.132812 78.546875 74.144531 78.5 74.152344 78.445312 C 74.160156 78.394531 74.164062 78.339844 74.167969 78.285156 C 74.175781 78.226562 74.183594 78.167969 74.199219 78.105469 C 74.214844 78.046875 74.234375 77.992188 74.253906 77.941406 C 74.273438 77.886719 74.292969 77.839844 74.304688 77.789062 C 74.316406 77.746094 74.320312 77.6875 74.332031 77.632812 C 74.339844 77.578125 74.355469 77.496094 74.375 77.386719 C 74.363281 77.378906 74.355469 77.367188 74.34375 77.359375 C 74.320312 77.335938 74.300781 77.3125 74.277344 77.289062 C 74.242188 77.25 74.1875 77.207031 74.140625 77.164062 C 74.089844 77.117188 74.035156 77.070312 73.980469 77.015625 C 73.953125 76.992188 73.925781 76.964844 73.898438 76.933594 C 73.886719 76.921875 73.871094 76.90625 73.859375 76.890625 C 73.84375 76.871094 73.828125 76.847656 73.820312 76.828125 C 73.796875 76.785156 73.785156 76.742188 73.773438 76.714844 C 73.761719 76.683594 73.75 76.664062 73.738281 76.652344 C 73.730469 76.644531 73.71875 76.636719 73.703125 76.628906 C 73.6875 76.617188 73.664062 76.601562 73.644531 76.582031 C 73.632812 76.574219 73.625 76.5625 73.621094 76.554688 C 73.613281 76.546875 73.605469 76.539062 73.597656 76.53125 C 73.585938 76.511719 73.574219 76.492188 73.566406 76.476562 C 73.484375 76.332031 73.453125 76.191406 73.394531 76.09375 C 73.4375 76.160156 73.46875 76.25 73.507812 76.34375 C 73.527344 76.390625 73.550781 76.4375 73.582031 76.488281 C 73.59375 76.511719 73.613281 76.535156 73.632812 76.558594 C 73.652344 76.585938 73.6875 76.609375 73.710938 76.621094 C 73.730469 76.636719 73.742188 76.644531 73.75 76.65625 C 73.761719 76.667969 73.769531 76.683594 73.78125 76.703125 C 73.796875 76.746094 73.808594 76.808594 73.855469 76.871094 C 73.9375 76.972656 74.023438 77.050781 74.117188 77.132812 C 74.039062 77.066406 73.898438 76.933594 74.011719 77.042969 C 74.089844 77.113281 74.160156 77.171875 74.222656 77.230469 C 74.238281 77.246094 74.257812 77.257812 74.269531 77.273438 L 74.3125 77.320312 C 74.328125 77.335938 74.34375 77.351562 74.363281 77.367188 L 74.378906 77.382812 L 74.382812 77.382812 C 74.375 77.433594 74.367188 77.480469 74.355469 77.53125 L 74.355469 77.585938 C 74.34375 77.65625 74.335938 77.707031 74.328125 77.738281 C 74.324219 77.769531 74.320312 77.78125 74.320312 77.78125 C 74.316406 77.785156 74.324219 77.753906 74.328125 77.710938 C 74.332031 77.675781 74.339844 77.640625 74.335938 77.65625 C 74.332031 77.667969 74.328125 77.6875 74.320312 77.730469 C 74.3125 77.769531 74.300781 77.820312 74.269531 77.902344 C 74.234375 78 74.203125 78.082031 74.191406 78.148438 C 74.179688 78.21875 74.179688 78.265625 74.175781 78.308594 C 74.167969 78.390625 74.171875 78.453125 74.140625 78.578125 C 74.179688 78.457031 74.179688 78.351562 74.195312 78.238281 C 74.203125 78.183594 74.214844 78.121094 74.234375 78.0625 C 74.253906 78.003906 74.277344 77.941406 74.304688 77.875 C 74.308594 77.859375 74.316406 77.832031 74.324219 77.800781 C 74.328125 77.785156 74.332031 77.769531 74.335938 77.75 C 74.335938 77.726562 74.339844 77.707031 74.34375 77.683594 C 74.355469 77.597656 74.375 77.496094 74.390625 77.382812 L 74.359375 77.351562 C 74.335938 77.332031 74.316406 77.3125 74.300781 77.292969 L 74.273438 77.265625 L 74.242188 77.238281 L 74.183594 77.183594 C 74.101562 77.109375 74.019531 77.039062 73.945312 76.957031 C 74.066406 77.089844 74.234375 77.214844 74.316406 77.304688 C 74.359375 77.347656 74.398438 77.378906 74.390625 77.371094 C 74.386719 77.371094 74.386719 77.371094 74.386719 77.371094 C 74.386719 77.367188 74.382812 77.363281 74.378906 77.359375 C 74.363281 77.347656 74.34375 77.324219 74.3125 77.292969 C 74.183594 77.160156 74.019531 77.042969 73.886719 76.890625 C 73.871094 76.871094 73.851562 76.84375 73.835938 76.816406 C 73.824219 76.789062 73.816406 76.765625 73.808594 76.742188 C 73.792969 76.695312 73.777344 76.660156 73.753906 76.640625 C 73.742188 76.628906 73.730469 76.617188 73.707031 76.605469 C 73.703125 76.601562 73.699219 76.597656 73.695312 76.597656 C 73.699219 76.601562 73.703125 76.601562 73.710938 76.605469 C 73.753906 76.632812 73.765625 76.644531 73.785156 76.683594 C 73.804688 76.71875 73.816406 76.769531 73.839844 76.816406 C 73.851562 76.839844 73.867188 76.863281 73.878906 76.878906 C 73.894531 76.894531 73.90625 76.910156 73.917969 76.921875 C 73.9375 76.945312 73.957031 76.960938 73.964844 76.96875 C 73.980469 76.984375 73.960938 76.96875 73.890625 76.886719 C 73.875 76.871094 73.859375 76.84375 73.847656 76.820312 C 73.835938 76.800781 73.824219 76.777344 73.816406 76.753906 C 73.800781 76.710938 73.789062 76.671875 73.769531 76.648438 C 73.761719 76.636719 73.75 76.625 73.734375 76.617188 C 73.71875 76.605469 73.699219 76.59375 73.675781 76.574219 C 73.648438 76.550781 73.636719 76.53125 73.621094 76.511719 C 73.605469 76.492188 73.59375 76.472656 73.582031 76.453125 C 73.535156 76.367188 73.507812 76.28125 73.476562 76.207031 C 73.445312 76.128906 73.414062 76.070312 73.367188 76.015625 C 73.238281 75.839844 73.265625 75.882812 73.300781 75.941406 C 73.339844 76 73.386719 76.070312 73.292969 75.941406 C 73.316406 75.972656 73.210938 75.839844 73.125 75.667969 C 73.085938 75.582031 73.042969 75.492188 73.007812 75.414062 C 72.976562 75.332031 72.953125 75.261719 72.941406 75.226562 C 72.917969 75.132812 72.910156 75.097656 72.890625 75.03125 C 72.882812 74.996094 72.871094 74.960938 72.84375 74.902344 C 72.816406 74.839844 72.785156 74.757812 72.746094 74.648438 C 72.644531 74.359375 72.726562 74.601562 72.71875 74.585938 C 72.707031 74.558594 72.699219 74.53125 72.691406 74.503906 C 72.679688 74.472656 72.667969 74.449219 72.65625 74.40625 C 72.632812 74.320312 72.640625 74.242188 72.640625 74.171875 C 72.644531 74.132812 72.644531 74.097656 72.640625 74.066406 C 72.640625 74.027344 72.636719 73.988281 72.632812 73.953125 C 72.628906 73.875 72.621094 73.796875 72.617188 73.714844 C 72.609375 73.640625 72.597656 73.566406 72.585938 73.484375 C 72.582031 73.445312 72.578125 73.40625 72.574219 73.367188 C 72.574219 73.347656 72.574219 73.328125 72.570312 73.308594 C 72.570312 73.292969 72.570312 73.277344 72.570312 73.257812 C 72.558594 73.144531 72.542969 73.027344 72.546875 72.921875 C 72.546875 72.933594 72.546875 72.933594 72.546875 72.921875 C 72.546875 72.90625 72.550781 72.859375 72.558594 72.800781 C 72.566406 72.742188 72.582031 72.671875 72.59375 72.605469 C 72.609375 72.542969 72.613281 72.480469 72.617188 72.429688 C 72.617188 72.457031 72.621094 72.421875 72.625 72.363281 C 72.628906 72.304688 72.632812 72.214844 72.648438 72.148438 C 72.660156 72.078125 72.679688 72.03125 72.671875 72.058594 C 72.664062 72.082031 72.640625 72.1875 72.636719 72.382812 C 72.632812 72.398438 72.628906 72.46875 72.632812 72.347656 C 72.628906 72.460938 72.621094 72.558594 72.601562 72.644531 C 72.585938 72.730469 72.574219 72.796875 72.574219 72.816406 C 72.589844 72.703125 72.621094 72.601562 72.632812 72.507812 C 72.644531 72.414062 72.644531 72.316406 72.652344 72.222656 C 72.660156 72.179688 72.664062 72.136719 72.675781 72.089844 C 72.6875 72.050781 72.703125 72.011719 72.71875 71.980469 C 72.75 71.917969 72.773438 71.867188 72.792969 71.835938 C 72.738281 71.949219 72.695312 72.03125 72.675781 72.117188 C 72.65625 72.199219 72.652344 72.269531 72.648438 72.363281 C 72.640625 72.523438 72.625 72.585938 72.625 72.601562 C 72.625 72.617188 72.632812 72.578125 72.640625 72.527344 C 72.65625 72.425781 72.664062 72.25 72.664062 72.328125 C 72.667969 72.25 72.671875 72.148438 72.710938 72.039062 C 72.75 71.933594 72.808594 71.839844 72.839844 71.753906 C 72.871094 71.667969 72.878906 71.582031 72.890625 71.523438 C 72.894531 71.46875 72.902344 71.4375 72.898438 71.453125 C 72.910156 71.34375 72.9375 71.25 72.964844 71.1875 C 72.988281 71.121094 73.007812 71.078125 73.015625 71.058594 C 73.03125 71.011719 73.015625 71.039062 72.964844 71.140625 C 72.988281 71.082031 73.019531 71.023438 73.042969 70.957031 C 73.054688 70.925781 73.0625 70.894531 73.070312 70.859375 C 73.078125 70.824219 73.082031 70.785156 73.089844 70.75 C 73.101562 70.671875 73.113281 70.589844 73.136719 70.503906 C 73.15625 70.429688 73.167969 70.347656 73.191406 70.269531 C 73.203125 70.226562 73.214844 70.1875 73.234375 70.148438 C 73.246094 70.109375 73.261719 70.074219 73.277344 70.042969 C 73.300781 69.972656 73.328125 69.910156 73.351562 69.847656 C 73.363281 69.820312 73.375 69.789062 73.382812 69.765625 C 73.394531 69.734375 73.402344 69.710938 73.414062 69.683594 C 73.429688 69.636719 73.445312 69.59375 73.453125 69.5625 C 73.472656 69.519531 73.488281 69.46875 73.5 69.414062 C 73.507812 69.386719 73.515625 69.359375 73.519531 69.332031 C 73.527344 69.304688 73.53125 69.269531 73.539062 69.238281 C 73.566406 69.109375 73.609375 68.976562 73.640625 68.867188 C 73.671875 68.753906 73.6875 68.636719 73.710938 68.550781 C 73.738281 68.457031 73.765625 68.402344 73.773438 68.386719 C 73.75 68.445312 73.730469 68.503906 73.714844 68.5625 C 73.699219 68.621094 73.6875 68.675781 73.679688 68.734375 C 73.667969 68.789062 73.65625 68.84375 73.644531 68.894531 C 73.625 68.953125 73.609375 69.011719 73.59375 69.074219 C 73.605469 69.027344 73.621094 68.980469 73.636719 68.929688 C 73.652344 68.882812 73.664062 68.839844 73.671875 68.789062 C 73.695312 68.6875 73.710938 68.578125 73.746094 68.472656 C 73.78125 68.371094 73.820312 68.28125 73.847656 68.199219 C 73.859375 68.160156 73.871094 68.125 73.878906 68.089844 C 73.886719 68.050781 73.894531 68.019531 73.902344 67.988281 C 73.925781 67.921875 73.941406 67.871094 73.96875 67.800781 C 73.992188 67.730469 74.035156 67.632812 74.105469 67.5 C 74.085938 67.527344 74.121094 67.464844 74.175781 67.34375 C 74.203125 67.273438 74.25 67.1875 74.296875 67.097656 C 74.316406 67.054688 74.335938 67.007812 74.351562 66.953125 C 74.371094 66.898438 74.390625 66.835938 74.410156 66.773438 C 74.441406 66.679688 74.464844 66.597656 74.488281 66.527344 C 74.511719 66.460938 74.53125 66.398438 74.546875 66.34375 C 74.578125 66.234375 74.601562 66.148438 74.632812 66.074219 C 74.65625 66.015625 74.671875 65.957031 74.695312 65.890625 C 74.699219 65.875 74.707031 65.859375 74.710938 65.839844 C 74.714844 65.832031 74.71875 65.824219 74.722656 65.8125 C 74.730469 65.796875 74.738281 65.785156 74.746094 65.769531 C 74.777344 65.707031 74.824219 65.667969 74.882812 65.625 C 74.90625 65.648438 74.929688 65.679688 74.957031 65.707031 C 74.972656 65.722656 74.984375 65.738281 75 65.757812 C 75.003906 65.765625 75.011719 65.777344 75.019531 65.785156 L 75.03125 65.800781 C 75.0625 65.847656 75.09375 65.90625 75.121094 65.972656 C 75.101562 65.917969 75.078125 65.867188 75.046875 65.816406 C 75.117188 65.925781 75.148438 66.035156 75.171875 66.117188 C 75.183594 66.160156 75.195312 66.195312 75.210938 66.226562 C 75.222656 66.257812 75.234375 66.28125 75.253906 66.304688 C 75.320312 66.394531 75.410156 66.460938 75.488281 66.554688 C 75.507812 66.578125 75.523438 66.605469 75.539062 66.632812 C 75.554688 66.660156 75.566406 66.6875 75.582031 66.714844 C 75.605469 66.773438 75.628906 66.832031 75.65625 66.898438 C 75.683594 66.964844 75.714844 67.046875 75.746094 67.132812 C 75.765625 67.175781 75.78125 67.21875 75.804688 67.265625 C 75.824219 67.308594 75.851562 67.351562 75.886719 67.398438 C 75.914062 67.433594 75.945312 67.464844 75.976562 67.5 C 76.023438 67.558594 76.074219 67.617188 76.117188 67.6875 C 76.160156 67.757812 76.191406 67.824219 76.222656 67.894531 C 76.253906 67.964844 76.28125 68.035156 76.3125 68.105469 C 76.328125 68.140625 76.34375 68.179688 76.359375 68.214844 C 76.375 68.25 76.398438 68.296875 76.414062 68.339844 C 76.390625 68.285156 76.371094 68.253906 76.359375 68.226562 C 76.347656 68.203125 76.332031 68.175781 76.308594 68.125 C 76.328125 68.164062 76.34375 68.203125 76.363281 68.246094 C 76.382812 68.289062 76.402344 68.332031 76.417969 68.378906 C 76.449219 68.464844 76.476562 68.550781 76.511719 68.632812 C 76.488281 68.578125 76.472656 68.542969 76.476562 68.5625 C 76.484375 68.582031 76.503906 68.660156 76.597656 68.828125 C 76.570312 68.78125 76.535156 68.714844 76.503906 68.652344 C 76.476562 68.589844 76.449219 68.519531 76.433594 68.472656 C 76.394531 68.375 76.386719 68.367188 76.472656 68.597656 C 76.460938 68.566406 76.488281 68.640625 76.546875 68.75 C 76.605469 68.855469 76.703125 69.007812 76.769531 69.152344 C 76.726562 69.066406 76.707031 69.035156 76.710938 69.042969 C 76.714844 69.050781 76.734375 69.089844 76.761719 69.148438 C 76.816406 69.261719 76.902344 69.441406 76.945312 69.527344 C 77.066406 69.769531 76.902344 69.429688 76.863281 69.351562 C 76.953125 69.523438 77.035156 69.703125 77.121094 69.878906 C 77.066406 69.769531 77.105469 69.851562 77.160156 69.96875 C 77.210938 70.082031 77.28125 70.234375 77.289062 70.257812 C 77.300781 70.28125 77.3125 70.304688 77.328125 70.335938 C 77.339844 70.363281 77.351562 70.394531 77.363281 70.425781 C 77.386719 70.484375 77.40625 70.542969 77.421875 70.585938 C 77.453125 70.667969 77.460938 70.683594 77.410156 70.507812 C 77.394531 70.460938 77.375 70.410156 77.351562 70.359375 C 77.292969 70.214844 77.230469 70.074219 77.167969 69.933594 C 77.21875 70.042969 77.269531 70.152344 77.320312 70.257812 C 77.34375 70.3125 77.367188 70.367188 77.386719 70.425781 C 77.40625 70.480469 77.421875 70.535156 77.441406 70.589844 C 77.457031 70.644531 77.472656 70.699219 77.492188 70.75 L 77.550781 70.910156 C 77.566406 70.964844 77.585938 71.019531 77.605469 71.078125 L 77.632812 71.164062 C 77.640625 71.191406 77.648438 71.214844 77.65625 71.242188 C 77.691406 71.351562 77.734375 71.464844 77.761719 71.59375 C 77.789062 71.730469 77.769531 71.859375 77.785156 71.976562 C 77.804688 72.105469 77.808594 72.242188 77.820312 72.378906 C 77.820312 72.519531 77.832031 72.667969 77.828125 72.820312 C 77.824219 72.996094 77.820312 72.960938 77.816406 72.984375 C 77.816406 72.996094 77.816406 73.019531 77.8125 73.089844 C 77.8125 73.125 77.8125 73.171875 77.808594 73.234375 C 77.808594 73.300781 77.808594 73.378906 77.800781 73.480469 C 77.796875 73.542969 77.792969 73.609375 77.792969 73.628906 C 77.796875 73.636719 77.796875 73.632812 77.800781 73.605469 C 77.800781 73.582031 77.804688 73.554688 77.8125 73.503906 C 77.808594 73.507812 77.808594 73.511719 77.808594 73.519531 L 77.800781 73.585938 C 77.796875 73.632812 77.792969 73.679688 77.789062 73.726562 C 77.78125 73.820312 77.769531 73.921875 77.742188 74.019531 C 77.71875 74.117188 77.695312 74.214844 77.664062 74.316406 C 77.628906 74.417969 77.597656 74.519531 77.566406 74.632812 C 77.542969 74.707031 77.519531 74.757812 77.519531 74.753906 C 77.519531 74.753906 77.523438 74.738281 77.53125 74.707031 C 77.539062 74.679688 77.554688 74.632812 77.574219 74.566406 C 77.5625 74.605469 77.535156 74.695312 77.496094 74.789062 C 77.460938 74.886719 77.402344 74.980469 77.359375 75.046875 C 77.300781 75.136719 77.253906 75.207031 77.21875 75.269531 C 77.183594 75.332031 77.152344 75.390625 77.128906 75.441406 C 77.078125 75.542969 77.03125 75.621094 76.984375 75.691406 C 76.9375 75.765625 76.886719 75.835938 76.808594 75.929688 C 76.761719 75.984375 76.703125 76.03125 76.640625 76.078125 C 76.609375 76.101562 76.574219 76.125 76.546875 76.15625 C 76.519531 76.183594 76.492188 76.21875 76.460938 76.265625 C 76.515625 76.191406 76.488281 76.234375 76.484375 76.242188 C 76.480469 76.25 76.484375 76.246094 76.503906 76.21875 C 76.523438 76.191406 76.550781 76.152344 76.652344 76.078125 C 76.707031 76.039062 76.765625 75.992188 76.816406 75.929688 C 76.863281 75.875 76.90625 75.820312 76.945312 75.761719 C 77.023438 75.65625 76.960938 75.75 76.90625 75.824219 C 76.847656 75.898438 76.808594 75.953125 76.945312 75.78125 C 76.902344 75.839844 76.859375 75.890625 76.8125 75.945312 C 76.757812 76.003906 76.699219 76.046875 76.652344 76.082031 C 76.601562 76.121094 76.558594 76.152344 76.53125 76.1875 C 76.5 76.226562 76.472656 76.269531 76.441406 76.3125 C 76.460938 76.285156 76.433594 76.324219 76.386719 76.367188 C 76.34375 76.40625 76.296875 76.4375 76.308594 76.429688 C 76.171875 76.535156 76.152344 76.542969 76.125 76.566406 C 76.109375 76.574219 76.09375 76.585938 76.058594 76.609375 C 76.027344 76.628906 75.972656 76.664062 75.902344 76.714844 C 75.867188 76.738281 75.929688 76.683594 76.042969 76.613281 C 76.152344 76.542969 76.292969 76.445312 76.378906 76.371094 C 76.390625 76.355469 76.394531 76.351562 76.386719 76.359375 C 76.382812 76.363281 76.375 76.367188 76.367188 76.375 C 76.359375 76.378906 76.347656 76.390625 76.335938 76.398438 C 76.289062 76.4375 76.214844 76.492188 76.125 76.546875 C 76.039062 76.605469 75.9375 76.664062 75.867188 76.726562 C 75.789062 76.789062 75.726562 76.859375 75.683594 76.898438 C 75.65625 76.933594 75.667969 76.925781 75.652344 76.941406 C 75.644531 76.953125 75.628906 76.96875 75.597656 77 C 75.582031 77.015625 75.5625 77.03125 75.535156 77.054688 C 75.511719 77.074219 75.480469 77.097656 75.449219 77.128906 C 75.421875 77.144531 75.367188 77.195312 75.292969 77.261719 C 75.253906 77.292969 75.210938 77.332031 75.167969 77.371094 C 75.144531 77.390625 75.121094 77.410156 75.097656 77.429688 C 75.085938 77.441406 75.070312 77.449219 75.054688 77.460938 L 75.046875 77.46875 L 75.042969 77.46875 C 75.042969 77.472656 75.042969 77.472656 75.042969 77.476562 L 75.039062 77.503906 C 75.035156 77.527344 75.03125 77.550781 75.027344 77.574219 C 75.015625 77.621094 75.007812 77.664062 74.996094 77.707031 C 74.988281 77.746094 74.980469 77.78125 74.972656 77.816406 C 74.964844 77.851562 74.957031 77.882812 74.949219 77.910156 C 74.929688 78.003906 74.90625 78.089844 74.898438 78.121094 C 74.894531 78.152344 74.902344 78.128906 74.9375 77.996094 C 74.914062 78.097656 74.878906 78.203125 74.863281 78.285156 C 74.847656 78.367188 74.835938 78.421875 74.839844 78.402344 C 74.832031 78.4375 74.828125 78.476562 74.820312 78.523438 C 74.8125 78.570312 74.804688 78.621094 74.792969 78.671875 C 74.777344 78.777344 74.765625 78.902344 74.738281 79.023438 C 74.710938 79.148438 74.671875 79.257812 74.648438 79.351562 C 74.628906 79.441406 74.613281 79.523438 74.605469 79.566406 C 74.609375 79.542969 74.589844 79.628906 74.5625 79.75 C 74.550781 79.8125 74.535156 79.875 74.527344 79.941406 C 74.515625 80.003906 74.503906 80.070312 74.496094 80.121094 C 74.480469 80.214844 74.453125 80.339844 74.421875 80.488281 C 74.414062 80.523438 74.402344 80.5625 74.394531 80.601562 C 74.386719 80.644531 74.375 80.683594 74.359375 80.722656 C 74.335938 80.804688 74.304688 80.882812 74.285156 80.960938 C 74.238281 81.125 74.195312 81.289062 74.15625 81.433594 C 74.113281 81.582031 74.078125 81.699219 74.058594 81.78125 C 74.0625 81.75 74.125 81.539062 74.132812 81.503906 C 74.132812 81.503906 74.128906 81.507812 74.125 81.519531 C 74.121094 81.527344 74.117188 81.542969 74.113281 81.5625 C 74.101562 81.597656 74.085938 81.648438 74.070312 81.707031 C 74.039062 81.824219 74.003906 81.964844 73.980469 82.0625 L 73.992188 82.011719 L 73.949219 82.175781 L 73.941406 82.199219 L 73.941406 82.214844 L 73.933594 82.246094 C 73.933594 82.265625 73.933594 82.277344 73.933594 82.289062 C 73.929688 82.300781 73.9375 82.289062 73.9375 82.292969 C 73.945312 82.277344 73.949219 82.28125 73.941406 82.292969 C 73.9375 82.304688 73.921875 82.328125 73.914062 82.339844 C 73.910156 82.351562 73.90625 82.355469 73.910156 82.355469 C 73.910156 82.355469 73.929688 82.328125 74.007812 82.238281 C 74.019531 82.222656 74.03125 82.207031 74.042969 82.191406 C 74.054688 82.171875 74.066406 82.15625 74.082031 82.140625 C 74.105469 82.109375 74.128906 82.082031 74.148438 82.058594 C 74.191406 82.011719 74.222656 81.976562 74.246094 81.953125 C 74.269531 81.929688 74.285156 81.910156 74.296875 81.902344 C 74.300781 81.894531 74.304688 81.890625 74.308594 81.886719 C 74.308594 81.886719 74.308594 81.882812 74.3125 81.882812 C 74.3125 81.878906 74.3125 81.878906 74.3125 81.871094 C 74.3125 81.867188 74.3125 81.863281 74.3125 81.859375 C 74.3125 81.863281 74.3125 81.839844 74.316406 81.820312 C 74.320312 81.804688 74.339844 81.777344 74.351562 81.761719 C 74.367188 81.746094 74.382812 81.730469 74.402344 81.710938 C 74.417969 81.699219 74.425781 81.691406 74.441406 81.675781 C 74.457031 81.664062 74.472656 81.648438 74.488281 81.636719 C 74.519531 81.613281 74.550781 81.59375 74.574219 81.570312 C 74.628906 81.527344 74.6875 81.472656 74.746094 81.425781 C 74.746094 81.421875 74.757812 81.410156 74.78125 81.390625 C 74.792969 81.382812 74.804688 81.371094 74.820312 81.359375 C 74.839844 81.34375 74.859375 81.332031 74.878906 81.320312 C 74.921875 81.292969 74.96875 81.273438 75.011719 81.246094 L 75.03125 81.238281 C 75.035156 81.234375 75.039062 81.234375 75.042969 81.230469 C 75.050781 81.226562 75.058594 81.21875 75.066406 81.210938 L 75.097656 81.183594 C 75.105469 81.175781 75.109375 81.171875 75.117188 81.167969 C 75.125 81.164062 75.125 81.164062 75.128906 81.160156 C 75.171875 81.09375 75.214844 81.03125 75.238281 80.996094 C 75.261719 80.957031 75.269531 80.945312 75.246094 80.976562 C 75.265625 80.945312 75.285156 80.917969 75.300781 80.890625 C 75.320312 80.867188 75.339844 80.847656 75.355469 80.828125 C 75.382812 80.789062 75.410156 80.761719 75.425781 80.738281 C 75.464844 80.695312 75.480469 80.671875 75.496094 80.65625 C 75.507812 80.640625 75.519531 80.628906 75.539062 80.605469 C 75.558594 80.578125 75.585938 80.539062 75.636719 80.457031 C 75.671875 80.402344 75.707031 80.347656 75.746094 80.289062 C 75.765625 80.261719 75.785156 80.234375 75.804688 80.203125 C 75.824219 80.175781 75.839844 80.144531 75.859375 80.113281 C 75.898438 80.050781 75.9375 79.976562 75.996094 79.90625 C 76.054688 79.835938 76.128906 79.777344 76.195312 79.710938 C 76.160156 79.746094 76.085938 79.816406 76.074219 79.828125 C 76.152344 79.753906 76.222656 79.695312 76.273438 79.625 C 76.320312 79.558594 76.355469 79.484375 76.394531 79.410156 C 76.433594 79.339844 76.480469 79.269531 76.535156 79.21875 C 76.589844 79.164062 76.640625 79.121094 76.6875 79.078125 C 76.710938 79.054688 76.730469 79.035156 76.75 79.007812 L 76.8125 78.933594 C 76.851562 78.878906 76.894531 78.828125 76.9375 78.777344 C 77.019531 78.679688 77.097656 78.566406 77.21875 78.457031 C 77.140625 78.53125 76.992188 78.71875 77.019531 78.691406 C 77.070312 78.625 77.136719 78.542969 77.214844 78.464844 C 77.292969 78.394531 77.371094 78.316406 77.441406 78.25 C 77.511719 78.1875 77.578125 78.136719 77.621094 78.101562 C 77.660156 78.066406 77.675781 78.050781 77.660156 78.0625 C 77.78125 77.96875 77.726562 78.015625 77.707031 78.03125 C 77.699219 78.042969 77.695312 78.042969 77.726562 78.019531 C 77.738281 78.007812 77.761719 77.988281 77.796875 77.960938 C 77.828125 77.929688 77.867188 77.886719 77.929688 77.832031 C 77.871094 77.886719 77.8125 77.957031 77.738281 78.015625 C 77.667969 78.078125 77.589844 78.136719 77.523438 78.195312 C 77.539062 78.183594 77.640625 78.105469 77.738281 78.027344 C 77.785156 77.988281 77.828125 77.949219 77.859375 77.914062 C 77.894531 77.882812 77.914062 77.863281 77.914062 77.863281 C 77.875 77.898438 77.832031 77.945312 77.796875 77.980469 C 77.757812 78.015625 77.730469 78.039062 77.730469 78.042969 C 77.820312 77.972656 77.878906 77.898438 77.957031 77.832031 C 78.035156 77.765625 78.128906 77.738281 78.210938 77.683594 C 78.269531 77.648438 78.242188 77.664062 78.1875 77.691406 C 78.136719 77.722656 78.046875 77.753906 77.992188 77.789062 C 78.0625 77.746094 78.113281 77.730469 78.160156 77.707031 C 78.203125 77.683594 78.25 77.652344 78.320312 77.605469 L 78.300781 77.605469 C 78.488281 77.484375 78.554688 77.457031 78.621094 77.417969 C 78.65625 77.398438 78.695312 77.371094 78.75 77.328125 C 78.808594 77.285156 78.890625 77.214844 79.027344 77.144531 C 78.9375 77.195312 78.953125 77.1875 78.890625 77.226562 C 78.984375 77.167969 79.113281 77.109375 79.25 77.042969 C 79.316406 77.011719 79.390625 76.972656 79.464844 76.941406 C 79.542969 76.914062 79.617188 76.886719 79.695312 76.863281 C 79.839844 76.816406 79.960938 76.71875 80.09375 76.683594 C 80.214844 76.648438 80.3125 76.621094 80.367188 76.609375 C 80.136719 76.675781 80.25 76.648438 80.382812 76.609375 C 80.417969 76.601562 80.453125 76.59375 80.484375 76.585938 C 80.515625 76.578125 80.546875 76.574219 80.566406 76.570312 C 80.605469 76.5625 80.609375 76.5625 80.539062 76.578125 C 80.671875 76.546875 80.804688 76.519531 80.929688 76.492188 C 81.058594 76.464844 81.175781 76.421875 81.292969 76.390625 C 81.410156 76.355469 81.527344 76.34375 81.632812 76.347656 C 81.738281 76.351562 81.832031 76.363281 81.917969 76.363281 C 82.066406 76.367188 82.175781 76.347656 82.269531 76.347656 C 82.359375 76.339844 82.429688 76.34375 82.5 76.339844 C 82.566406 76.335938 82.632812 76.328125 82.714844 76.316406 C 82.796875 76.308594 82.894531 76.277344 83.027344 76.292969 C 83.085938 76.296875 83.132812 76.304688 83.179688 76.3125 C 83.246094 76.316406 83.308594 76.320312 83.375 76.308594 C 83.558594 76.277344 83.667969 76.246094 83.832031 76.289062 C 84.007812 76.335938 84.097656 76.386719 84.089844 76.617188 C 84.089844 76.640625 84.085938 76.660156 84.078125 76.683594 C 84.078125 76.691406 84.078125 76.695312 84.074219 76.699219 Z M 73.785156 83.082031 Z M 72.011719 81.617188 Z M 72.011719 81.628906 Z M 72.011719 81.628906 Z M 72.011719 81.628906 C 72.003906 81.628906 72.003906 81.628906 72.011719 81.628906 Z M 73.796875 83.34375 L 73.792969 83.097656 C 73.792969 83.097656 73.792969 83.09375 73.792969 83.089844 C 73.792969 83.089844 73.789062 83.089844 73.789062 83.085938 C 73.789062 83.089844 73.792969 83.089844 73.792969 83.089844 L 73.789062 83.085938 C 73.785156 83.082031 73.785156 83.082031 73.785156 83.082031 C 73.78125 83.082031 73.785156 83.082031 73.789062 83.085938 C 73.789062 83.089844 73.785156 83.09375 73.785156 83.097656 C 73.789062 83.332031 73.796875 83.566406 73.792969 83.585938 C 73.800781 83.503906 73.796875 83.421875 73.796875 83.34375 Z M 73.808594 83.429688 C 73.808594 83.328125 73.804688 83.21875 73.804688 83.101562 C 73.800781 83.101562 73.796875 83.097656 73.792969 83.09375 C 73.792969 83.09375 73.792969 83.097656 73.792969 83.097656 C 73.796875 83.152344 73.804688 83.164062 73.808594 83.429688 Z M 73.824219 83.09375 C 73.828125 83.09375 73.824219 83.09375 73.824219 83.09375 Z M 73.796875 83.085938 L 73.792969 83.085938 C 73.792969 83.089844 73.792969 83.089844 73.792969 83.09375 C 73.800781 83.101562 73.808594 83.105469 73.800781 83.097656 L 73.804688 83.097656 L 73.804688 83.089844 Z M 73.792969 83.085938 C 73.792969 83.085938 73.792969 83.085938 73.789062 83.085938 L 73.792969 83.089844 L 73.792969 83.085938 L 73.796875 83.085938 Z M 73.789062 83.085938 C 73.789062 83.085938 73.789062 83.082031 73.785156 83.082031 C 73.789062 83.082031 73.789062 83.082031 73.789062 83.082031 C 73.789062 83.082031 73.789062 83.085938 73.789062 83.085938 Z M 80.4375 81.078125 C 80.433594 81.074219 80.421875 81.078125 80.402344 81.085938 C 80.351562 81.105469 80.296875 81.121094 80.246094 81.140625 C 80.1875 81.160156 80.128906 81.171875 80.070312 81.1875 L 80.078125 81.1875 C 79.976562 81.207031 79.890625 81.222656 79.816406 81.238281 C 79.738281 81.257812 79.667969 81.277344 79.59375 81.296875 C 79.71875 81.265625 79.789062 81.25 79.867188 81.238281 C 79.945312 81.222656 80.03125 81.210938 80.179688 81.171875 C 80.285156 81.140625 80.347656 81.117188 80.386719 81.101562 C 80.425781 81.085938 80.4375 81.078125 80.4375 81.078125 Z M 81.226562 80.613281 C 81.230469 80.613281 81.230469 80.609375 81.234375 80.609375 C 81.21875 80.621094 81.199219 80.632812 81.183594 80.644531 C 81.195312 80.632812 81.210938 80.625 81.226562 80.613281 Z M 81.621094 80.292969 C 81.589844 80.320312 81.558594 80.347656 81.523438 80.375 C 81.554688 80.351562 81.589844 80.320312 81.621094 80.292969 Z M 81.773438 80.148438 C 81.726562 80.195312 81.679688 80.238281 81.632812 80.28125 C 81.675781 80.242188 81.722656 80.195312 81.773438 80.148438 Z M 82.3125 79.554688 L 82.253906 79.617188 C 82.324219 79.539062 82.367188 79.488281 82.398438 79.445312 C 82.328125 79.527344 82.253906 79.605469 82.1875 79.6875 C 82.097656 79.789062 82.015625 79.898438 81.921875 80 C 81.875 80.046875 81.828125 80.09375 81.78125 80.140625 C 81.835938 80.089844 81.890625 80.035156 81.953125 79.96875 C 81.953125 79.96875 81.945312 79.980469 81.929688 79.996094 C 81.914062 80.011719 81.898438 80.03125 81.878906 80.046875 C 81.84375 80.085938 81.8125 80.121094 81.824219 80.109375 C 82.007812 79.945312 82.140625 79.734375 82.3125 79.554688 Z M 73.582031 76.46875 C 73.570312 76.449219 73.5625 76.429688 73.550781 76.410156 C 73.558594 76.425781 73.570312 76.445312 73.582031 76.46875 Z M 73.792969 83.085938 Z M 73.785156 83.082031 C 73.789062 83.082031 73.789062 83.085938 73.789062 83.085938 C 73.785156 83.082031 73.785156 83.082031 73.785156 83.082031 Z M 73.785156 83.082031 Z M 73.695312 76.597656 C 73.691406 76.59375 73.691406 76.59375 73.6875 76.59375 C 73.691406 76.59375 73.691406 76.59375 73.695312 76.597656 Z M 67.578125 77.800781 C 67.59375 77.824219 67.605469 77.847656 67.621094 77.875 C 67.609375 77.851562 67.59375 77.828125 67.578125 77.800781 Z M 74.015625 78.910156 C 74.015625 78.914062 74.015625 78.917969 74.015625 78.917969 C 74.015625 78.914062 74.015625 78.910156 74.015625 78.910156 Z M 69.363281 80.097656 C 69.367188 80.101562 69.375 80.105469 69.378906 80.105469 C 69.375 80.105469 69.371094 80.101562 69.367188 80.101562 C 69.367188 80.097656 69.363281 80.097656 69.363281 80.097656 Z M 69.363281 80.097656 C 69.332031 80.078125 69.296875 80.058594 69.253906 80.035156 C 69.273438 80.046875 69.3125 80.066406 69.363281 80.097656 Z M 73.601562 76.496094 C 73.609375 76.507812 73.617188 76.519531 73.628906 76.53125 C 73.617188 76.519531 73.605469 76.503906 73.59375 76.484375 C 73.597656 76.488281 73.597656 76.492188 73.601562 76.496094 Z M 73.59375 76.484375 C 73.589844 76.480469 73.585938 76.472656 73.582031 76.46875 C 73.585938 76.472656 73.589844 76.480469 73.59375 76.484375 Z M 72.707031 81.84375 C 72.703125 81.832031 72.703125 81.820312 72.703125 81.8125 C 72.699219 81.808594 72.699219 81.800781 72.699219 81.800781 C 72.707031 81.847656 72.710938 81.890625 72.710938 81.914062 C 72.710938 81.894531 72.710938 81.863281 72.707031 81.84375 Z M 69.230469 73.398438 C 69.238281 73.40625 69.238281 73.40625 69.238281 73.410156 C 69.242188 73.417969 69.242188 73.414062 69.230469 73.398438 Z M 82.507812 79.351562 L 82.574219 79.265625 C 82.550781 79.296875 82.535156 79.316406 82.507812 79.351562 Z M 82.609375 79.222656 C 82.597656 79.238281 82.585938 79.253906 82.574219 79.265625 Z M 82.609375 79.222656 " clip-rule="nonzero"/></clipPath></defs><g clip-path="url(#5a9228bb31)"><path fill="#ffffff" d="M 112.445312 81.378906 C 112.457031 82.285156 112.378906 83.1875 112.328125 84.09375 C 112.300781 84.546875 112.234375 84.996094 112.1875 85.445312 C 112.136719 85.898438 112.097656 86.347656 112.011719 86.792969 C 110.972656 93.984375 107.820312 100.867188 103.113281 106.46875 C 98.414062 112.070312 92.140625 116.40625 85.132812 118.734375 C 83.378906 119.300781 81.59375 119.804688 79.773438 120.125 L 79.09375 120.257812 C 78.867188 120.300781 78.636719 120.324219 78.40625 120.359375 L 77.035156 120.554688 L 75.652344 120.683594 L 74.960938 120.746094 L 74.265625 120.777344 L 72.878906 120.832031 L 71.488281 120.820312 L 70.792969 120.8125 C 70.5625 120.804688 70.332031 120.785156 70.101562 120.773438 L 68.710938 120.6875 L 67.328125 120.535156 L 66.636719 120.457031 L 65.949219 120.34375 L 64.574219 120.113281 L 63.210938 119.820312 C 55.953125 118.179688 49.148438 114.476562 43.78125 109.242188 C 38.40625 104.015625 34.484375 97.265625 32.625 89.933594 L 32.289062 88.554688 L 32.019531 87.164062 C 31.976562 86.929688 31.925781 86.699219 31.890625 86.464844 L 31.792969 85.765625 C 31.726562 85.296875 31.652344 84.828125 31.601562 84.359375 C 31.523438 83.417969 31.40625 82.472656 31.386719 81.527344 C 31.375 81.054688 31.34375 80.582031 31.339844 80.109375 L 31.359375 78.6875 C 31.425781 74.894531 32.0625 71.109375 33.171875 67.46875 C 34.265625 63.816406 35.933594 60.339844 37.988281 57.121094 C 38.230469 56.710938 38.519531 56.328125 38.789062 55.933594 C 39.066406 55.542969 39.328125 55.140625 39.621094 54.765625 C 40.214844 54.015625 40.777344 53.238281 41.421875 52.53125 C 41.738281 52.167969 42.046875 51.804688 42.367188 51.449219 C 42.601562 51.207031 42.785156 50.917969 42.910156 50.605469 C 50.917969 30.882812 78.707031 23.386719 100.078125 40.511719 C 100.410156 40.777344 100.238281 41.316406 99.8125 41.332031 C 92.667969 41.621094 87.585938 47.914062 80.308594 53.546875 C 72.597656 59.515625 62.425781 64.742188 44.726562 61.300781 C 44.65625 61.289062 44.589844 61.273438 44.519531 61.257812 C 43.785156 61.074219 43.566406 60.140625 44.160156 59.671875 C 44.78125 59.179688 45.414062 58.695312 46.054688 58.214844 C 47.660156 57.015625 49.308594 55.859375 50.988281 54.746094 C 51.828125 54.1875 52.675781 53.640625 53.53125 53.101562 C 54.382812 52.5625 55.246094 52.035156 56.113281 51.519531 C 57.847656 50.480469 59.609375 49.488281 61.394531 48.539062 C 63.183594 47.59375 64.996094 46.695312 66.839844 45.859375 C 68.683594 45.023438 70.558594 44.25 72.472656 43.585938 C 73.429688 43.253906 74.398438 42.949219 75.378906 42.6875 C 75.921875 42.542969 76.472656 42.410156 77.023438 42.292969 C 77.089844 42.277344 77.074219 42.183594 77.007812 42.191406 C 76.445312 42.265625 75.882812 42.355469 75.324219 42.460938 C 74.320312 42.648438 73.324219 42.878906 72.335938 43.136719 C 70.359375 43.65625 68.410156 44.292969 66.488281 44.992188 C 64.566406 45.691406 62.664062 46.457031 60.789062 47.277344 C 58.910156 48.09375 57.054688 48.960938 55.21875 49.875 C 54.300781 50.332031 53.386719 50.800781 52.476562 51.277344 C 51.570312 51.757812 50.667969 52.246094 49.773438 52.746094 C 48.554688 53.429688 47.347656 54.132812 46.152344 54.859375 L 46.0625 54.945312 C 45.769531 55.246094 45.488281 55.5625 45.203125 55.871094 C 44.613281 56.476562 44.101562 57.148438 43.554688 57.789062 C 43.285156 58.117188 43.046875 58.464844 42.792969 58.800781 C 42.542969 59.140625 42.277344 59.46875 42.050781 59.828125 C 40.152344 62.617188 38.578125 65.648438 37.511719 68.867188 C 36.425781 72.078125 35.746094 75.4375 35.589844 78.847656 L 35.53125 80.125 C 35.519531 80.550781 35.535156 80.976562 35.535156 81.40625 C 35.523438 82.257812 35.605469 83.109375 35.648438 83.960938 C 35.683594 84.386719 35.742188 84.808594 35.785156 85.234375 L 35.855469 85.871094 C 35.878906 86.085938 35.921875 86.292969 35.953125 86.503906 L 36.15625 87.769531 L 36.425781 89.023438 C 37.90625 95.703125 41.28125 101.980469 46.085938 106.945312 C 50.882812 111.914062 57.082031 115.550781 63.824219 117.289062 L 65.09375 117.605469 L 67.015625 117.980469 L 67.664062 118.074219 L 68.957031 118.257812 L 70.261719 118.375 C 70.476562 118.394531 70.695312 118.417969 70.914062 118.433594 L 71.566406 118.460938 L 72.875 118.511719 L 74.1875 118.5 L 74.84375 118.492188 L 75.5 118.453125 L 76.808594 118.367188 L 78.113281 118.222656 C 78.328125 118.199219 78.546875 118.179688 78.765625 118.148438 L 79.414062 118.039062 C 81.148438 117.792969 82.851562 117.363281 84.535156 116.875 C 91.265625 114.863281 97.417969 110.898438 102.128906 105.613281 C 106.84375 100.335938 110.132812 93.726562 111.371094 86.6875 C 111.464844 86.253906 111.519531 85.808594 111.582031 85.367188 C 111.640625 84.925781 111.722656 84.484375 111.761719 84.039062 C 111.839844 83.148438 111.941406 82.261719 111.957031 81.363281 C 112 80.472656 112.023438 79.578125 111.992188 78.679688 C 111.96875 77.785156 111.917969 76.890625 111.832031 76 C 111.503906 72.429688 110.679688 68.898438 109.382812 65.539062 C 110.777344 68.855469 111.714844 72.375 112.15625 75.964844 C 112.269531 76.859375 112.347656 77.761719 112.398438 78.664062 C 112.457031 79.566406 112.460938 80.472656 112.445312 81.378906 " fill-opacity="1" fill-rule="nonzero"/></g><g clip-path="url(#0648d67111)"><g clip-path="url(#1fc2a65f65)"><path fill="#ffffff" d="M 103.070312 57.144531 L 106.636719 57.144531 L 106.636719 60.796875 L 103.070312 60.796875 Z M 103.070312 57.144531 " fill-opacity="1" fill-rule="nonzero"/></g></g><g clip-path="url(#2f7432e8ba)"><g clip-path="url(#99358b53b5)"><path fill="#ffffff" d="M 94.542969 49.421875 L 100.394531 49.421875 L 100.394531 55.269531 L 94.542969 55.269531 Z M 94.542969 49.421875 " fill-opacity="1" fill-rule="nonzero"/></g></g><path fill="#ffffff" d="M 89.410156 77.441406 C 89.410156 77.441406 87.703125 76.035156 87.15625 80.117188 C 86.867188 82.277344 85.941406 83.886719 84.824219 85.042969 C 85.726562 84.902344 86.671875 84.707031 87.628906 84.398438 C 89.214844 81.269531 88.867188 78.121094 89.410156 77.441406 Z M 95.203125 73.011719 C 95.203125 73.011719 92.902344 71.679688 93.074219 76.925781 C 93.148438 79.242188 92.8125 80.976562 92.253906 82.296875 C 92.933594 82.070312 93.511719 81.996094 93.980469 82.066406 C 94.253906 82.109375 94.496094 82.203125 94.695312 82.34375 C 95.972656 77.957031 94.691406 74.015625 95.203125 73.011719 Z M 92.328125 75.050781 C 92.328125 75.050781 90.214844 73.675781 90.117188 78.375 C 90.074219 80.589844 89.289062 82.601562 88.257812 84.175781 C 88.875 83.941406 89.496094 83.65625 90.109375 83.300781 C 90.5625 83.039062 90.988281 82.820312 91.386719 82.640625 C 92.527344 79.089844 91.824219 75.851562 92.328125 75.050781 " fill-opacity="1" fill-rule="nonzero"/><g clip-path="url(#2cba0f4306)"><path fill="#ffffff" d="M 76.742188 107.164062 C 79.183594 101.746094 81.125 99.519531 91.566406 92.976562 C 102.179688 86.328125 98.449219 77.605469 102.628906 75.207031 C 102.628906 75.207031 98.882812 72.339844 97.476562 78.976562 C 95.867188 86.5625 91.765625 87.996094 86.53125 89.851562 C 86.53125 89.851562 92.996094 87.167969 94.339844 84.5 C 95.160156 82.867188 94.113281 81.789062 90.453125 83.898438 C 86.285156 86.300781 81.898438 85.660156 79.757812 86.457031 C 69.726562 90.171875 76.742188 107.164062 76.742188 107.164062 " fill-opacity="1" fill-rule="nonzero"/></g><path fill="#ffffff" d="M 59.753906 84.398438 C 60.710938 84.707031 61.65625 84.902344 62.558594 85.042969 C 61.441406 83.886719 60.519531 82.277344 60.226562 80.117188 C 59.679688 76.035156 57.976562 77.441406 57.976562 77.441406 C 58.519531 78.121094 58.167969 81.269531 59.753906 84.398438 Z M 52.6875 82.34375 C 52.886719 82.203125 53.128906 82.109375 53.402344 82.066406 C 53.871094 81.996094 54.449219 82.070312 55.128906 82.296875 C 54.570312 80.976562 54.238281 79.242188 54.3125 76.925781 C 54.480469 71.679688 52.183594 73.011719 52.183594 73.011719 C 52.695312 74.015625 51.410156 77.957031 52.6875 82.34375 Z M 55.996094 82.640625 C 56.394531 82.820312 56.820312 83.039062 57.273438 83.300781 C 57.886719 83.65625 58.507812 83.941406 59.125 84.175781 C 58.097656 82.601562 57.3125 80.589844 57.265625 78.375 C 57.167969 73.675781 55.054688 75.050781 55.054688 75.050781 C 55.558594 75.851562 54.855469 79.089844 55.996094 82.640625 " fill-opacity="1" fill-rule="nonzero"/><g clip-path="url(#8ff2f3fba8)"><path fill="#ffffff" d="M 70.640625 107.164062 C 68.199219 101.746094 66.257812 99.519531 55.816406 92.976562 C 45.203125 86.328125 48.933594 77.605469 44.753906 75.203125 C 44.753906 75.203125 48.5 72.339844 49.90625 78.976562 C 51.515625 86.5625 55.617188 87.996094 60.855469 89.851562 C 60.855469 89.851562 54.386719 87.167969 53.046875 84.5 C 52.222656 82.867188 53.269531 81.789062 56.929688 83.898438 C 61.097656 86.300781 65.484375 85.660156 67.628906 86.457031 C 77.65625 90.171875 70.640625 107.164062 70.640625 107.164062 " fill-opacity="1" fill-rule="nonzero"/></g><g clip-path="url(#b007f9ccb7)"><g clip-path="url(#e7f26dda7d)"><path fill="#ffffff" d="M 67.09375 65.625 L 67.09375 89.417969 L 84.097656 89.417969 L 84.097656 65.625 Z M 67.09375 65.625 " fill-opacity="1" fill-rule="nonzero"/></g></g><path fill="#013b23" d="M 72.054688 80.964844 C 71.917969 80.789062 71.753906 80.652344 71.621094 80.476562 C 71.476562 80.28125 71.316406 80.140625 71.15625 79.96875 C 70.835938 79.625 70.554688 79.175781 70.351562 78.769531 C 70.195312 78.457031 70.039062 78.132812 69.914062 77.808594 C 69.804688 77.519531 69.664062 77.226562 69.496094 76.964844 C 69.347656 76.734375 69.234375 76.480469 69.089844 76.246094 C 68.992188 76.085938 68.867188 75.933594 68.773438 75.78125 C 68.734375 75.714844 68.628906 75.640625 68.640625 75.546875 C 68.835938 75.757812 69.039062 75.964844 69.21875 76.191406 C 69.417969 76.449219 69.664062 76.667969 69.875 76.914062 C 70.199219 77.296875 70.402344 77.808594 70.628906 78.261719 C 70.859375 78.722656 71.085938 79.207031 71.316406 79.667969 C 71.425781 79.886719 71.554688 80.09375 71.660156 80.308594 C 71.707031 80.402344 71.746094 80.539062 71.808594 80.621094 C 71.875 80.714844 72.027344 80.832031 72.054688 80.964844 Z M 74.875 76.605469 C 74.882812 76.472656 74.867188 76.339844 74.875 76.210938 C 74.878906 76.089844 74.929688 76.03125 74.941406 75.917969 C 74.957031 75.785156 74.972656 75.707031 75.003906 75.589844 C 75.039062 75.472656 75.054688 75.386719 75.066406 75.261719 C 75.074219 75.167969 75.128906 75.089844 75.140625 74.996094 C 75.148438 74.933594 75.121094 74.863281 75.132812 74.800781 C 75.164062 74.652344 75.203125 74.566406 75.203125 74.40625 C 75.199219 74.277344 75.199219 74.144531 75.203125 74.015625 C 75.203125 73.871094 75.140625 73.761719 75.136719 73.621094 C 75.128906 73.492188 75.15625 73.355469 75.136719 73.226562 C 75.121094 73.101562 75.070312 73.035156 75.070312 72.898438 C 75.070312 72.847656 75.085938 72.75 75.074219 72.699219 C 75.058594 72.640625 75.015625 72.632812 75 72.574219 C 74.988281 72.511719 75.019531 72.4375 75.007812 72.375 C 74.996094 72.300781 74.953125 72.25 74.9375 72.179688 C 74.902344 72.015625 74.925781 71.757812 74.9375 71.597656 C 74.949219 71.441406 75.007812 71.328125 75.003906 71.167969 C 75.003906 70.988281 75 70.804688 75.007812 70.625 C 75.019531 70.734375 74.945312 70.875 74.941406 70.996094 C 74.9375 71.117188 74.878906 71.207031 74.871094 71.324219 C 74.867188 71.433594 74.882812 71.535156 74.859375 71.640625 C 74.847656 71.691406 74.816406 71.710938 74.808594 71.78125 C 74.800781 71.835938 74.808594 71.894531 74.808594 71.949219 C 74.808594 72.179688 74.808594 72.40625 74.808594 72.636719 C 74.808594 72.765625 74.785156 72.820312 74.757812 72.929688 C 74.722656 73.070312 74.742188 73.230469 74.742188 73.375 C 74.742188 73.714844 74.675781 74.035156 74.675781 74.375 C 74.679688 74.644531 74.675781 74.910156 74.675781 75.179688 C 74.675781 75.296875 74.675781 75.414062 74.675781 75.535156 C 74.675781 75.734375 74.707031 75.882812 74.738281 76.074219 C 74.757812 76.195312 74.773438 76.289062 74.800781 76.410156 C 74.820312 76.480469 74.894531 76.628906 74.875 76.703125 C 74.804688 76.816406 74.867188 76.746094 74.875 76.605469 Z M 77.414062 80.492188 C 77.613281 80.375 77.777344 80.210938 77.988281 80.113281 C 78.230469 80 78.480469 79.914062 78.742188 79.832031 C 79.019531 79.75 79.328125 79.644531 79.582031 79.507812 C 79.773438 79.402344 79.929688 79.210938 80.09375 79.066406 C 80.347656 78.835938 80.636719 78.664062 80.925781 78.476562 C 81.0625 78.382812 81.183594 78.265625 81.316406 78.164062 C 81.398438 78.101562 81.671875 77.949219 81.683594 77.828125 C 81.28125 77.988281 80.828125 78.125 80.449219 78.355469 C 80.320312 78.433594 80.21875 78.484375 80.085938 78.542969 C 79.957031 78.605469 79.847656 78.710938 79.726562 78.785156 C 79.5 78.925781 79.257812 78.992188 79.035156 79.128906 C 78.796875 79.273438 78.542969 79.414062 78.296875 79.558594 C 78.058594 79.699219 77.824219 79.855469 77.582031 79.984375 C 77.460938 80.046875 77.339844 80.089844 77.222656 80.160156 C 77.042969 80.269531 76.871094 80.386719 76.691406 80.5 C 76.542969 80.589844 76.4375 80.703125 76.316406 80.820312 C 76.25 80.886719 76.140625 80.929688 76.121094 81.03125 C 76.542969 80.886719 77.007812 80.730469 77.414062 80.492188 Z M 77.414062 80.492188 " fill-opacity="1" fill-rule="nonzero"/></svg>